<?xml version="1.0" standalone="no"?>
<!DOCTYPE svg PUBLIC "-//W3C//DTD SVG 20010904//EN"
 "http://www.w3.org/TR/2001/REC-SVG-20010904/DTD/svg10.dtd">
<svg version="1.0" xmlns="http://www.w3.org/2000/svg"
 width="1417.000000pt" height="1417.000000pt" viewBox="0 0 1417.000000 1417.000000"
 preserveAspectRatio="xMidYMid meet">
<metadata>
Created by potrace 1.14, written by Peter Selinger 2001-2017
</metadata>
<g transform="translate(0.000000,1417.000000) scale(0.100000,-0.100000)"
fill="#000000" stroke="none">
<path d="M7090 14130 c-9 -6 -10 -10 -3 -10 6 0 15 5 18 10 8 12 4 12 -15 0z"/>
<path d="M7091 14103 c4 -22 -2 -33 -13 -27 -8 5 -7 0 2 -11 8 -10 10 -16 4
-12 -8 4 -12 -4 -12 -26 0 -59 -6 -97 -17 -97 -5 0 -4 -4 4 -9 9 -6 10 -10 2
-16 -9 -5 -9 -11 1 -23 10 -12 10 -14 1 -8 -10 5 -13 -4 -13 -34 0 -23 -5 -50
-10 -61 -8 -14 -7 -19 1 -19 8 0 8 -4 2 -12 -6 -7 -9 -23 -8 -35 1 -13 -1 -23
-5 -23 -4 0 -5 -11 -2 -25 2 -14 0 -31 -6 -38 -7 -8 -7 -18 -2 -27 5 -8 6 -19
2 -25 -7 -12 -10 -27 -14 -73 -1 -18 -6 -36 -10 -38 -4 -3 -4 -14 2 -24 7 -13
7 -21 -1 -25 -6 -4 -8 -18 -5 -31 4 -14 2 -24 -4 -24 -6 0 -8 -5 -5 -10 4 -6
1 -18 -7 -27 -9 -12 -9 -15 0 -9 6 4 12 3 12 -3 0 -5 -5 -13 -11 -17 -8 -4 -7
-9 2 -15 8 -5 9 -9 3 -9 -6 0 -10 -15 -9 -35 1 -19 -2 -35 -5 -35 -4 0 -6 -11
-5 -25 2 -14 -2 -25 -8 -25 -7 0 -5 -5 3 -10 8 -5 10 -10 4 -10 -6 0 -10 -17
-10 -40 1 -22 -3 -40 -9 -40 -5 0 -3 -4 5 -10 12 -8 12 -10 -3 -16 -9 -3 -17
-10 -17 -16 0 -5 5 -6 10 -3 11 7 9 -23 -2 -41 -4 -5 -5 -19 -4 -30 2 -10 -1
-27 -6 -36 -6 -13 -5 -18 4 -18 9 0 10 -3 2 -8 -6 -4 -10 -17 -9 -29 1 -13 -1
-23 -4 -23 -6 0 -11 -51 -11 -113 0 -16 -3 -26 -8 -23 -5 3 -9 -1 -9 -9 0 -8
4 -15 8 -15 4 0 3 -13 -2 -30 -6 -16 -9 -35 -6 -42 2 -7 -3 -22 -12 -32 -15
-18 -15 -19 2 -13 13 5 16 3 10 -6 -17 -28 -26 -109 -10 -102 7 4 3 -1 -7 -9
-15 -12 -16 -16 -5 -16 12 0 12 -2 -1 -10 -8 -5 -12 -12 -8 -15 3 -4 2 -20 -2
-36 -6 -20 -5 -29 3 -29 9 0 9 -2 0 -8 -7 -4 -12 -16 -12 -27 -1 -51 -9 -116
-14 -122 -4 -3 -2 -12 4 -19 7 -8 6 -14 -2 -20 -8 -5 -9 -3 -4 6 5 8 4 11 -1
7 -6 -3 -9 -26 -8 -51 1 -25 -1 -46 -5 -46 -3 0 -6 -25 -6 -55 0 -30 -3 -55
-6 -55 -4 0 -5 -13 -4 -30 1 -16 -1 -30 -6 -30 -5 0 -4 -12 2 -26 9 -25 8 -26
-7 -13 -16 13 -16 12 -5 -8 6 -13 8 -23 3 -23 -5 0 -8 -12 -6 -26 1 -15 -2
-37 -6 -50 -7 -17 -6 -24 3 -24 7 0 8 -3 2 -8 -11 -8 -18 -45 -19 -104 -1 -21
-4 -38 -7 -38 -7 0 -8 -8 -11 -82 -1 -32 -7 -58 -12 -58 -6 0 -5 -4 3 -9 9 -6
10 -11 3 -15 -6 -4 -8 -14 -5 -23 5 -12 3 -14 -8 -8 -12 8 -12 6 0 -8 7 -9 9
-17 4 -17 -4 0 -8 -18 -7 -40 0 -23 -4 -40 -10 -40 -6 0 -4 -5 4 -10 8 -5 10
-10 3 -10 -6 0 -10 -13 -9 -30 1 -16 -1 -30 -4 -30 -3 0 -5 -15 -4 -32 1 -18
-2 -41 -8 -51 -7 -14 -7 -17 1 -13 8 5 8 0 2 -16 -5 -13 -9 -26 -10 -30 0 -5
-2 -11 -2 -15 -1 -5 0 -16 1 -26 1 -10 -4 -26 -12 -35 -11 -13 -11 -14 1 -7
11 6 13 4 6 -11 -4 -10 -10 -41 -12 -69 -2 -27 -10 -56 -16 -64 -9 -12 -9 -13
1 -7 6 4 12 3 12 -3 0 -5 -5 -13 -11 -17 -8 -4 -7 -9 2 -15 8 -5 9 -9 3 -9 -6
0 -11 -13 -12 -30 -1 -16 -2 -41 -3 -55 -1 -14 -7 -25 -13 -25 -7 0 -7 -3 -1
-8 12 -9 16 -44 4 -37 -4 3 -7 -10 -5 -30 1 -19 -1 -35 -4 -35 -4 0 -5 -11 -2
-25 2 -14 -1 -32 -8 -40 -8 -10 -9 -15 -2 -15 6 0 9 -7 6 -15 -4 -8 -9 -13
-13 -10 -4 2 -6 -9 -3 -24 2 -15 -1 -44 -6 -64 -7 -24 -7 -39 -1 -43 6 -3 6
-11 1 -17 -5 -7 -8 -29 -8 -51 1 -22 -4 -41 -11 -43 -7 -3 -13 -10 -13 -15 0
-6 7 -7 16 -4 15 6 15 4 3 -10 -7 -9 -14 -32 -16 -52 -4 -64 -12 -137 -14
-137 -1 0 -8 -53 -11 -85 0 -8 -5 -21 -11 -27 -6 -9 -6 -13 2 -13 8 0 9 -6 4
-17 -5 -10 -8 -27 -8 -38 1 -11 -3 -26 -8 -32 -6 -9 -6 -13 2 -13 7 0 8 -8 1
-26 -6 -14 -8 -30 -4 -35 3 -5 2 -9 -3 -9 -4 0 -9 -23 -10 -51 0 -31 -7 -55
-15 -60 -11 -7 -11 -9 1 -9 11 0 11 -3 1 -15 -9 -11 -9 -15 -1 -15 8 0 9 -6 3
-17 -5 -10 -8 -28 -7 -41 1 -13 -2 -25 -6 -28 -5 -2 -6 -11 -2 -19 3 -8 0 -15
-7 -15 -6 0 -8 -5 -5 -10 4 -6 12 -7 18 -3 8 4 7 1 -1 -9 -18 -23 -24 -78 -9
-78 8 0 7 -3 -2 -9 -8 -5 -10 -14 -6 -21 5 -9 4 -11 -4 -6 -8 5 -10 0 -7 -17
2 -13 1 -30 -4 -37 -4 -7 -5 -24 -1 -39 8 -29 -10 -76 -25 -63 -4 4 -4 0 2 -8
6 -8 9 -25 7 -37 -2 -13 -4 -33 -6 -45 -2 -13 1 -29 6 -36 7 -9 6 -11 -7 -6
-13 5 -15 1 -9 -26 5 -25 3 -31 -6 -25 -10 6 -11 3 -3 -12 7 -12 7 -24 0 -37
-8 -15 -8 -17 3 -10 12 7 12 5 0 -9 -7 -9 -10 -17 -5 -17 5 0 2 -5 -6 -10 -8
-5 -10 -10 -4 -10 6 0 11 -7 11 -15 0 -8 -4 -12 -8 -9 -5 2 -6 -9 -4 -26 2
-16 -1 -30 -6 -30 -6 0 -6 -7 0 -18 6 -11 6 -23 1 -28 -5 -5 -12 -43 -15 -84
-4 -41 -11 -80 -16 -86 -5 -6 -4 -15 3 -22 7 -7 8 -12 2 -12 -6 0 -10 -18 -9
-40 1 -22 -3 -40 -8 -40 -5 0 -4 -7 3 -15 8 -9 8 -15 2 -15 -11 0 -12 -4 -14
-77 0 -24 -4 -43 -7 -43 -4 0 -7 -9 -8 -20 -1 -11 2 -20 8 -20 5 0 9 -7 9 -15
0 -8 5 -15 11 -15 5 0 7 -5 4 -10 -4 -6 4 -19 17 -30 13 -11 19 -19 15 -20 -4
0 -3 -6 2 -12 50 -61 62 -79 57 -87 -4 -5 3 -12 14 -16 11 -4 18 -10 15 -14
-2 -4 4 -17 15 -28 10 -12 16 -24 13 -27 -4 -3 -1 -6 6 -6 7 0 9 -4 6 -10 -3
-5 1 -10 10 -10 9 0 13 -4 10 -10 -3 -5 -1 -10 6 -10 7 0 10 -3 6 -6 -3 -3 -1
-11 4 -18 22 -26 59 -83 69 -104 5 -12 17 -25 25 -28 8 -4 15 -13 15 -20 0 -8
9 -24 20 -36 11 -12 20 -28 20 -35 0 -7 5 -13 10 -13 6 0 10 -9 10 -21 0 -11
5 -17 10 -14 6 3 10 -1 10 -9 0 -9 5 -16 11 -16 5 0 7 -4 4 -10 -3 -5 1 -10 9
-10 9 0 16 -9 16 -20 0 -11 5 -20 12 -20 6 0 9 -3 5 -6 -3 -4 -1 -12 6 -20 22
-24 32 -39 46 -66 8 -16 18 -28 23 -28 4 0 8 -6 8 -13 0 -7 9 -23 20 -35 11
-12 20 -26 20 -32 0 -5 5 -10 11 -10 5 0 7 -4 4 -10 -3 -5 -1 -10 5 -10 6 0 9
-4 6 -8 -3 -5 4 -14 14 -22 10 -8 17 -17 14 -22 -3 -4 2 -11 10 -14 9 -3 13
-10 10 -15 -3 -5 0 -9 6 -9 6 0 8 -4 5 -10 -3 -5 1 -10 10 -10 9 0 13 -5 10
-10 -3 -6 -1 -10 5 -10 6 0 8 -4 5 -10 -3 -5 -1 -10 5 -10 6 0 9 -3 7 -7 -3
-5 0 -12 7 -18 14 -12 45 -20 34 -9 -4 4 2 15 14 26 12 10 19 21 15 24 -3 3 6
17 20 30 13 12 22 28 18 33 -3 6 1 11 9 11 9 0 16 7 16 15 0 8 5 15 11 15 5 0
7 4 4 10 -3 5 -1 10 4 10 6 0 11 7 11 15 0 8 3 15 8 15 4 0 18 20 32 45 13 24
26 42 29 39 6 -5 35 57 32 69 -1 5 3 6 8 3 5 -3 15 2 22 11 12 14 12 16 -1 8
-13 -8 -13 -7 0 11 26 34 37 43 43 37 4 -3 5 4 2 16 -2 13 3 25 16 31 11 6 17
15 14 21 -4 5 -1 9 5 9 6 0 9 4 6 9 -3 5 1 12 10 15 9 4 14 9 12 12 -3 3 7 19
23 36 15 17 26 35 23 40 -3 4 2 11 10 14 9 3 16 12 16 20 0 8 5 14 10 14 6 0
10 6 10 13 0 8 9 22 20 32 11 10 17 21 15 25 -3 4 2 10 10 14 8 3 15 15 15 26
0 12 4 18 10 15 5 -3 12 6 16 20 3 14 10 25 15 25 5 0 13 8 16 18 8 20 55 86
66 90 4 2 5 8 1 13 -3 5 0 9 6 9 6 0 9 4 5 9 -3 6 1 13 8 18 16 9 42 54 39 65
-1 5 4 7 11 5 6 -1 11 4 10 11 -2 6 2 12 8 12 5 0 8 4 5 9 -3 5 2 12 11 15 15
6 15 8 3 16 -12 8 -12 10 -1 10 11 0 11 3 0 17 -12 14 -12 16 0 8 11 -6 12 -5
5 6 -5 8 -10 31 -11 53 -1 21 -8 45 -15 54 -9 11 -9 14 -1 9 8 -5 11 0 10 13
-1 11 -4 20 -7 20 -5 0 -9 49 -10 118 0 12 -6 22 -13 22 -8 0 -7 4 3 10 8 5
10 10 5 10 -6 0 -12 10 -12 23 -6 105 -9 137 -14 137 -3 0 -5 18 -4 40 1 22
-2 40 -6 40 -4 0 -5 9 -2 20 3 13 0 20 -8 20 -9 0 -10 3 -4 8 12 8 15 52 4 52
-4 0 -6 11 -4 25 1 14 -2 28 -6 31 -5 3 -9 10 -9 15 0 6 5 7 12 3 7 -5 8 -3 2
7 -10 16 -13 31 -17 79 -1 19 -6 41 -10 48 -5 7 -3 12 4 12 8 0 8 4 -1 15 -7
8 -9 15 -6 15 4 0 2 10 -5 21 -8 15 -8 19 0 15 6 -4 11 -2 11 3 0 6 -3 11 -7
11 -5 0 -9 11 -9 25 -1 16 2 23 10 19 6 -3 4 0 -4 8 -8 7 -15 24 -15 38 1 14
-4 28 -10 32 -6 5 -5 8 3 8 8 0 10 5 6 12 -13 21 -14 59 -1 51 7 -4 7 -1 -1
10 -8 9 -14 31 -16 49 -1 18 -5 39 -10 47 -7 11 -6 12 5 6 12 -8 12 -6 0 8 -8
11 -9 17 -3 17 6 0 9 7 6 15 -4 8 -9 13 -13 11 -3 -2 -6 21 -6 52 1 32 -3 62
-8 69 -4 6 -4 14 2 17 6 4 8 13 5 21 -4 8 -10 13 -15 10 -8 -6 -4 28 6 45 3 6
1 10 -5 10 -7 0 -10 7 -6 15 3 8 1 15 -5 15 -6 0 -6 6 0 19 6 10 7 21 4 25 -9
9 -16 50 -17 103 -1 24 -4 43 -8 43 -3 0 -4 9 -1 20 3 13 0 20 -8 20 -11 0
-11 2 1 10 8 5 10 10 4 10 -7 0 -10 12 -8 30 2 16 -1 32 -7 36 -8 4 -7 10 2
16 11 7 11 11 2 15 -7 2 -13 11 -13 19 0 9 5 12 11 8 6 -3 5 4 -4 17 -8 13
-13 41 -12 62 1 20 -1 37 -5 37 -3 0 -6 9 -7 20 -1 13 2 18 10 13 7 -3 4 3 -6
14 -14 16 -15 22 -5 26 9 4 10 6 1 6 -9 1 -10 8 -3 26 6 16 6 27 -2 31 -7 5
-8 3 -3 -6 5 -9 4 -11 -4 -6 -9 6 -9 11 0 22 6 8 7 14 2 14 -5 0 -10 7 -10 15
0 8 5 15 11 15 5 0 1 7 -10 15 -14 10 -15 14 -5 15 11 0 12 3 4 11 -6 6 -9 18
-6 25 3 8 0 21 -6 28 -9 11 -9 15 1 19 10 4 10 8 1 14 -6 5 -10 21 -9 36 2 15
0 29 -4 32 -3 2 -5 20 -4 39 2 23 -1 36 -9 36 -7 0 -6 4 3 10 8 5 10 10 4 10
-6 0 -12 21 -13 48 -2 26 -4 58 -5 72 0 14 -5 31 -9 38 -5 6 -6 12 -4 12 3 0
1 16 -3 35 -5 22 -4 35 2 35 6 0 3 12 -7 26 -14 22 -15 28 -4 35 8 5 9 9 4 9
-6 0 -11 17 -12 38 -2 65 -7 92 -16 92 -5 0 -4 6 2 13 6 8 8 17 4 21 -4 4 -8
17 -9 29 -1 12 -3 36 -5 52 -1 17 -7 36 -13 44 -8 11 -8 13 2 7 6 -4 12 -2 12
3 0 6 -4 11 -8 11 -5 0 -8 18 -8 40 1 22 -3 40 -9 40 -5 0 -3 5 5 10 12 7 12
10 1 10 -8 0 -11 6 -7 17 4 9 1 20 -6 25 -10 8 -10 11 0 15 6 2 9 10 5 16 -9
15 -12 31 -14 85 -1 23 -7 42 -13 42 -6 0 -4 5 4 10 8 5 10 10 5 10 -6 0 -11
26 -13 57 -2 32 -8 61 -15 65 -8 5 -8 8 -1 8 6 0 11 7 11 15 0 8 -3 15 -7 15
-4 0 -6 18 -6 40 1 22 -2 40 -5 40 -4 0 -5 9 -2 20 3 12 0 20 -7 20 -10 0 -10
3 0 15 7 8 8 15 3 15 -5 0 -9 12 -9 28 0 15 -4 56 -9 92 -4 36 -9 76 -11 90
-1 14 -3 25 -4 25 -1 0 -3 12 -5 28 -3 19 0 25 8 21 7 -3 5 1 -5 8 -12 10 -13
19 -7 31 7 11 6 17 -1 17 -5 0 -9 3 -9 8 1 4 1 9 0 12 -3 9 -12 134 -12 158 1
13 -2 21 -7 19 -4 -3 -7 19 -6 49 0 30 -3 54 -7 54 -9 0 -6 21 5 39 6 9 5 12
-1 8 -11 -7 -27 79 -17 94 3 5 1 9 -4 9 -5 0 -7 16 -5 36 2 19 0 33 -5 31 -4
-3 -7 16 -7 41 0 26 -4 51 -10 55 -7 6 -6 10 3 14 10 4 9 9 -5 20 -10 8 -12
11 -4 7 11 -6 13 -3 7 12 -7 17 -17 100 -17 147 0 9 -3 17 -7 17 -4 0 -7 25
-7 56 0 31 -3 58 -7 60 -4 2 -5 13 -3 24 2 11 0 20 -6 20 -5 0 -9 5 -9 11 0 5
5 7 12 3 7 -5 8 -3 3 6 -5 7 -9 25 -11 39 -1 14 -3 26 -4 26 -1 0 -4 12 -6 28
-3 17 0 27 8 27 8 0 6 5 -5 11 -13 8 -15 14 -7 30 6 11 7 19 1 19 -5 0 -8 8
-7 18 2 9 -2 20 -8 24 -7 5 -6 8 4 8 13 0 13 1 0 10 -13 9 -13 10 0 10 11 0
12 3 3 8 -6 4 -13 29 -14 55 -2 27 -7 51 -11 53 -5 3 -4 12 3 20 6 8 7 14 2
14 -9 0 -12 23 -17 123 0 15 -5 27 -10 27 -5 0 -2 8 5 17 8 10 9 14 2 10 -12
-8 -12 -8 -14 81 0 28 -5 52 -10 52 -5 0 -8 -3 -8 -7z"/>
<path d="M3966 10198 c3 -10 10 -18 15 -18 5 0 9 -8 9 -18 0 -9 14 -30 30 -45
17 -16 30 -33 30 -39 0 -5 18 -27 40 -48 22 -21 40 -46 40 -55 0 -8 7 -18 15
-21 8 -4 13 -10 10 -14 -3 -4 2 -11 11 -14 8 -3 12 -11 9 -16 -4 -6 -1 -9 6
-8 7 2 18 -7 24 -19 5 -13 13 -23 17 -23 5 0 8 -7 8 -16 0 -8 5 -12 10 -9 6 3
11 1 11 -4 1 -6 2 -17 3 -23 1 -7 7 -12 13 -11 7 2 15 -6 18 -17 4 -11 11 -20
16 -20 6 0 8 -4 5 -9 -3 -5 6 -17 19 -27 14 -10 25 -23 25 -27 0 -5 7 -15 15
-24 8 -8 13 -19 10 -24 -4 -5 1 -9 10 -9 9 0 14 -4 11 -9 -3 -5 1 -12 10 -15
8 -3 12 -10 9 -16 -3 -5 1 -10 9 -10 9 0 16 -7 16 -15 0 -8 8 -15 17 -15 9 0
13 -3 10 -7 -4 -3 -2 -12 4 -20 6 -7 8 -13 4 -13 -4 0 7 -12 24 -27 17 -15 31
-33 31 -41 0 -7 4 -11 9 -8 5 3 11 -4 14 -15 3 -12 10 -18 16 -14 7 3 8 0 5
-9 -3 -9 -1 -16 5 -16 6 0 10 -3 10 -7 -3 -18 2 -34 9 -30 4 3 13 -1 20 -9 7
-8 10 -14 7 -14 -3 0 4 -11 17 -24 32 -32 54 -66 50 -78 -1 -5 2 -7 8 -3 5 3
10 1 10 -5 0 -16 26 -40 35 -32 4 4 6 2 5 -3 -5 -22 1 -34 20 -40 11 -3 20
-15 20 -26 0 -10 9 -24 20 -31 11 -7 20 -19 20 -26 0 -7 5 -10 10 -7 6 3 10 3
10 -2 0 -13 46 -63 54 -58 3 3 4 2 1 -2 -3 -3 1 -13 8 -21 10 -13 9 -14 -2 -7
-10 5 -12 4 -7 -3 4 -7 14 -12 22 -12 8 0 13 -6 11 -12 -1 -7 3 -12 10 -11 8
2 10 -4 6 -14 -4 -11 -3 -14 5 -9 7 4 12 2 12 -6 0 -7 11 -22 25 -32 14 -11
24 -25 21 -33 -3 -7 -1 -13 4 -13 6 0 10 -4 10 -10 0 -14 37 -50 52 -50 6 0 8
-3 5 -6 -4 -4 2 -15 14 -25 14 -12 16 -18 7 -22 -8 -3 -6 -6 5 -6 10 -1 15 -5
12 -11 -3 -5 -1 -10 5 -10 6 0 9 -3 7 -7 -6 -10 19 -34 27 -26 3 4 6 -1 6 -10
0 -9 5 -17 11 -17 5 0 7 -5 3 -12 -5 -8 -2 -9 12 -4 10 4 15 4 11 0 -4 -4 -2
-13 4 -21 6 -7 9 -13 5 -13 -3 0 6 -12 22 -27 15 -16 19 -22 8 -14 -12 8 -4
-2 17 -23 20 -20 37 -42 37 -47 0 -6 4 -7 10 -4 6 4 7 -1 3 -11 -5 -13 -2 -16
9 -11 12 4 14 1 10 -15 -3 -14 -1 -19 6 -14 8 5 12 0 12 -13 0 -12 6 -20 13
-19 6 2 11 -2 10 -9 -2 -6 6 -15 17 -18 11 -4 20 -13 20 -20 0 -8 10 -21 22
-29 12 -9 19 -16 14 -16 -5 0 -2 -7 5 -17 8 -9 14 -19 14 -22 0 -3 3 -5 8 -3
7 2 11 -13 8 -31 0 -4 5 -6 11 -5 7 2 12 -3 10 -9 -1 -7 3 -13 9 -13 11 0 39
-25 39 -35 0 -3 -6 -3 -12 1 -13 7 -3 -5 70 -83 29 -31 36 -45 28 -54 -8 -9
-8 -10 2 -5 6 4 12 2 12 -4 0 -6 4 -9 9 -5 5 3 13 0 16 -6 4 -5 14 -8 23 -4 8
3 19 0 24 -7 6 -10 8 -10 8 -1 0 14 31 6 42 -11 5 -8 8 -7 8 1 0 9 7 10 26 3
14 -6 38 -10 54 -10 16 0 31 -4 34 -9 3 -5 15 -7 25 -4 10 3 22 0 25 -6 4 -5
13 -8 21 -4 8 3 15 0 15 -7 0 -7 6 -10 14 -7 7 3 19 0 25 -6 8 -8 11 -8 11 2
0 7 5 9 13 4 6 -4 19 -9 27 -10 33 -6 76 -14 90 -16 9 -2 22 -7 29 -12 10 -6
12 -4 6 5 -6 10 -4 11 6 4 14 -8 19 -10 57 -18 25 -5 33 16 14 38 -9 11 -11
16 -4 12 17 -10 15 9 -3 28 -10 10 -12 17 -4 21 7 5 4 13 -7 26 -12 13 -13 19
-4 19 9 0 8 6 -3 24 -14 21 -15 26 -1 37 13 10 13 14 -2 30 -9 10 -13 22 -10
27 3 4 -2 21 -10 37 -8 16 -13 36 -12 44 2 9 -3 21 -12 28 -13 11 -13 12 0 13
13 0 13 1 0 10 -9 6 -11 13 -5 18 13 9 18 32 7 32 -9 0 -10 7 -13 55 -1 14 -5
25 -9 25 -5 0 -7 8 -5 18 1 9 -3 27 -11 39 -9 14 -10 24 -4 28 6 4 5 11 -3 19
-6 8 -15 12 -18 10 -4 -2 -9 5 -12 16 -3 13 -10 18 -21 14 -11 -4 -16 -1 -16
11 0 9 -4 14 -9 10 -5 -3 -17 5 -26 17 -8 13 -19 23 -23 23 -4 0 -6 3 -4 8 1
4 -8 7 -20 7 -19 0 -20 2 -8 10 14 9 11 11 -15 10 -10 -1 -33 25 -28 32 2 4
-3 5 -11 2 -9 -3 -16 -1 -16 5 0 6 -7 11 -16 11 -9 0 -18 9 -21 19 -3 11 -19
25 -35 32 -30 12 -47 25 -118 92 -19 17 -28 23 -20 11 8 -11 3 -7 -12 8 -15
15 -32 28 -38 28 -5 0 -10 5 -10 10 0 6 -10 10 -22 10 -12 0 -19 3 -15 6 8 8
-18 34 -33 34 -6 0 -8 5 -5 10 3 6 -1 10 -10 10 -9 0 -13 5 -10 10 4 6 3 10
-2 9 -21 -4 -34 2 -27 13 4 7 3 8 -4 4 -6 -4 -20 2 -32 14 -11 11 -20 17 -20
14 0 -3 -13 8 -29 25 -16 17 -35 31 -41 31 -7 0 -20 8 -29 18 -9 10 -24 21
-33 25 -10 3 -18 13 -18 22 0 8 -6 15 -14 15 -8 0 -16 4 -18 9 -1 5 -10 11
-18 13 -8 2 -20 12 -27 23 -8 13 -12 15 -13 6 0 -9 -7 -6 -21 10 -12 13 -25
23 -29 22 -5 -2 -12 6 -15 17 -4 11 -10 18 -15 15 -4 -3 -11 2 -14 11 -4 10
-12 14 -23 10 -10 -4 -14 -4 -11 0 10 9 -43 55 -55 47 -5 -3 -8 -2 -5 3 3 5
-8 23 -25 39 -17 17 -26 23 -21 15 6 -11 3 -10 -7 2 -9 9 -19 14 -23 11 -3 -4
-6 2 -6 12 0 10 -3 16 -6 12 -7 -6 -60 43 -57 53 1 3 -7 7 -19 7 -11 1 -28 11
-38 22 -9 12 -22 21 -29 21 -6 0 -11 5 -11 10 0 6 -6 10 -14 10 -8 0 -18 9
-21 20 -4 11 -11 18 -16 15 -5 -4 -12 1 -15 9 -3 9 -9 14 -13 11 -4 -2 -22 9
-40 26 -18 16 -37 26 -43 23 -7 -4 -8 -2 -4 4 4 7 1 12 -8 12 -9 0 -15 4 -13
9 1 5 -1 8 -5 8 -3 -1 -17 10 -30 24 -13 15 -33 30 -46 34 -12 3 -19 11 -16
17 4 6 2 8 -4 5 -5 -4 -21 6 -35 22 -14 17 -28 27 -31 24 -3 -4 -6 -1 -6 6 0
7 -4 10 -9 6 -5 -3 -16 4 -24 15 -7 11 -17 17 -20 13 -4 -3 -7 -1 -7 5 0 7 -6
12 -12 12 -7 0 -22 14 -33 30 -18 28 -45 45 -29 18 4 -7 3 -8 -4 -4 -7 4 -12
14 -12 21 0 9 -6 12 -15 9 -10 -4 -15 0 -16 12 0 12 -3 14 -6 6 -4 -9 -10 -7
-22 7 -10 12 -21 17 -25 13 -4 -4 -7 -2 -6 3 5 24 -1 34 -17 28 -11 -4 -14 -3
-9 5 4 7 1 12 -7 12 -8 0 -32 17 -53 38 -21 20 -32 28 -25 17 8 -11 0 -5 -17
12 -18 18 -37 34 -43 35 -7 2 -27 19 -46 38 -18 19 -30 27 -27 18z"/>
<path d="M10191 10181 c-6 -11 -7 -22 -2 -25 5 -3 11 4 14 16 8 30 1 35 -12 9z"/>
<path d="M10160 10155 c-5 -14 -12 -25 -15 -25 -4 0 -3 6 0 13 4 6 -5 0 -18
-15 -14 -15 -27 -24 -30 -21 -3 2 -13 -7 -22 -21 -10 -14 -21 -24 -25 -21 -4
3 -11 -2 -14 -11 -3 -8 -11 -12 -16 -9 -6 4 -9 3 -8 -2 2 -4 -1 -9 -5 -10 -5
-1 -15 -10 -23 -20 -7 -10 -14 -14 -14 -9 0 5 -11 -3 -25 -18 -14 -15 -30 -24
-35 -21 -5 3 -7 0 -4 -8 3 -8 -2 -17 -11 -21 -11 -4 -14 -2 -9 7 5 8 2 8 -9
-2 -9 -7 -15 -17 -12 -21 3 -5 -11 -14 -30 -20 -21 -7 -32 -16 -28 -23 4 -6 0
-8 -10 -4 -12 4 -14 2 -10 -10 4 -11 2 -14 -5 -9 -7 4 -12 2 -12 -4 0 -7 -7
-9 -16 -6 -8 3 -13 2 -10 -3 6 -9 -41 -57 -52 -55 -4 1 -6 -2 -4 -8 1 -5 -2
-6 -8 -3 -6 4 -22 -5 -36 -20 -13 -14 -24 -23 -24 -20 0 3 -13 -8 -30 -26 -16
-18 -33 -30 -36 -26 -4 4 -13 -2 -21 -13 -8 -11 -21 -20 -29 -20 -8 0 -12 -4
-9 -10 3 -5 -1 -10 -9 -10 -9 0 -16 -4 -16 -10 0 -5 -7 -10 -16 -10 -8 0 -12
-4 -9 -10 3 -5 -6 -12 -20 -16 -14 -3 -25 -10 -25 -16 0 -5 -4 -6 -10 -3 -5 3
-10 2 -10 -2 0 -5 -7 -18 -16 -29 -8 -10 -13 -12 -9 -4 4 8 -3 4 -14 -9 -12
-13 -21 -20 -21 -16 0 5 -9 -3 -20 -15 -12 -13 -27 -25 -35 -26 -20 -3 -46
-30 -37 -39 4 -5 1 -5 -6 -1 -13 8 -85 -58 -74 -69 4 -3 -1 -3 -10 0 -17 7
-72 -37 -61 -48 3 -4 0 -7 -9 -7 -8 0 -24 -10 -36 -22 -33 -36 -50 -48 -67
-48 -9 0 -14 -3 -12 -7 6 -10 -19 -34 -27 -26 -3 3 -8 -2 -12 -11 -3 -9 -12
-16 -20 -16 -8 0 -13 -6 -12 -12 2 -7 -7 -13 -19 -13 -14 0 -41 -21 -72 -54
-27 -29 -54 -50 -60 -46 -6 3 -11 1 -11 -5 0 -6 -4 -8 -10 -5 -5 3 -10 -1 -10
-9 0 -10 -6 -13 -15 -10 -11 5 -13 2 -8 -12 4 -11 3 -15 -5 -10 -6 3 -18 -4
-26 -16 -9 -12 -16 -19 -16 -15 0 5 -11 -4 -25 -19 -14 -15 -25 -22 -25 -15 0
6 -14 -3 -32 -21 -18 -18 -35 -33 -39 -33 -4 0 -16 -10 -27 -22 -10 -13 -22
-20 -26 -16 -3 3 -6 1 -6 -5 0 -7 -4 -12 -10 -12 -9 0 -35 -19 -65 -47 -8 -7
-19 -13 -25 -13 -6 0 -8 -4 -5 -10 3 -5 2 -10 -4 -10 -6 0 -19 -10 -31 -22
-14 -15 -20 -18 -20 -7 -1 10 -3 9 -11 -4 -6 -9 -15 -14 -21 -11 -7 5 -9 1 -5
-9 6 -15 -3 -22 -25 -18 -4 0 -9 -8 -13 -18 -3 -10 -19 -24 -35 -31 -16 -7
-27 -16 -24 -21 3 -5 -1 -6 -9 -3 -8 3 -23 -6 -34 -20 -11 -14 -23 -22 -27
-19 -3 3 -6 -1 -6 -11 0 -10 -5 -14 -11 -11 -6 4 -13 -3 -16 -15 -3 -12 -11
-19 -19 -16 -13 5 -26 -22 -28 -59 -1 -11 -5 -26 -9 -32 -5 -8 -3 -13 5 -13 8
0 9 -3 3 -8 -5 -4 -11 -12 -12 -18 -4 -23 -14 -89 -16 -106 -1 -10 -5 -18 -10
-18 -5 0 -4 -7 3 -15 10 -12 10 -15 0 -15 -7 0 -10 -7 -6 -16 5 -12 2 -15 -11
-10 -14 6 -15 4 -6 -5 8 -8 9 -19 3 -35 -5 -13 -7 -31 -3 -41 4 -11 3 -14 -5
-9 -8 5 -10 2 -6 -8 4 -10 1 -16 -7 -16 -12 0 -12 -2 0 -9 9 -6 10 -11 2 -15
-6 -4 -9 -12 -5 -17 3 -5 2 -15 -3 -22 -4 -7 -8 -23 -8 -37 0 -14 -4 -28 -10
-32 -6 -5 -5 -8 3 -8 9 0 9 -8 -4 -31 -8 -17 -11 -28 -5 -25 6 4 11 3 11 -2 0
-5 7 -9 15 -9 8 0 15 4 15 8 0 4 9 5 20 2 12 -3 20 0 20 7 0 10 3 10 15 0 12
-10 16 -9 21 3 3 8 13 14 22 12 9 -1 23 2 30 8 8 6 16 7 22 1 12 -12 80 -5 80
8 0 5 4 7 9 3 5 -3 15 1 23 8 7 8 19 12 26 9 7 -2 22 4 33 14 19 17 20 17 13
-2 -7 -19 -7 -19 14 0 12 11 22 15 22 10 0 -6 9 -10 20 -11 11 -1 20 2 20 7 0
5 7 7 15 4 9 -4 15 0 15 7 0 9 3 10 8 4 9 -13 35 -19 28 -6 -3 5 3 11 14 14
11 3 20 0 20 -6 0 -8 4 -7 9 2 5 7 14 10 20 7 6 -4 11 -2 11 5 0 6 8 9 20 6
13 -3 20 0 20 10 0 8 9 17 19 20 13 3 18 10 14 21 -4 10 -2 13 5 8 11 -6 17 5
13 27 0 4 4 7 10 7 5 0 7 4 4 10 -4 6 1 7 11 3 11 -4 15 -2 11 4 -4 5 9 23 27
38 19 16 32 34 29 42 -3 7 2 13 12 13 9 0 13 5 10 10 -3 6 1 13 9 16 9 3 14 9
12 13 -3 4 8 18 25 31 29 25 40 48 17 34 -8 -4 -10 -3 -5 2 5 5 13 9 18 9 5 0
9 4 8 8 0 5 10 17 22 28 12 10 19 19 15 19 -4 0 2 10 14 22 11 12 20 25 20 30
0 4 7 8 16 8 8 0 13 4 9 9 -3 5 -1 12 5 16 6 4 7 11 4 17 -4 7 -2 8 4 4 11 -6
38 31 34 47 -1 4 3 7 9 7 5 0 7 4 4 10 -3 6 1 7 9 4 15 -6 21 6 17 29 -1 5 3
6 8 3 5 -3 15 2 22 11 12 14 12 16 -1 8 -8 -5 -4 5 10 22 14 17 28 29 32 26 4
-2 5 3 2 11 -4 11 0 16 11 16 9 0 14 4 10 9 -3 6 4 15 15 21 11 6 19 16 17 23
-1 7 3 11 10 10 8 -2 10 4 6 14 -4 11 -3 14 5 9 10 -6 17 7 10 17 -2 2 15 21
37 41 22 21 39 45 37 53 -2 8 1 13 5 10 5 -3 20 12 33 34 14 21 28 39 32 39 5
0 7 6 5 13 -1 6 3 11 9 10 7 -1 15 9 18 23 4 14 11 22 16 19 6 -3 11 -1 11 4
1 6 2 14 3 19 2 14 44 50 51 44 3 -4 3 2 -1 12 -4 11 -3 17 2 14 5 -3 15 0 22
8 7 8 10 14 7 14 -3 0 6 11 21 25 15 14 24 25 20 25 -4 0 4 12 18 27 14 15 23
30 20 35 -3 5 -2 8 3 7 21 -4 32 2 27 15 -3 7 2 16 10 19 9 4 16 13 16 22 0 8
7 15 16 15 8 0 12 5 9 10 -3 6 -1 10 6 10 7 0 10 3 6 6 -8 8 25 44 35 38 4 -3
5 3 1 12 -5 13 -3 15 7 9 10 -6 12 -4 7 8 -4 10 -2 16 4 14 6 -1 20 14 30 33
11 19 24 34 29 33 6 -2 9 0 9 5 -3 19 2 33 10 27 5 -3 12 4 16 15 3 11 11 20
16 20 5 0 9 7 9 15 0 8 4 15 9 15 5 0 13 10 17 22 8 26 49 69 58 61 3 -4 6 -1
6 6 0 6 9 21 20 33 11 12 20 28 20 35 0 7 5 13 10 13 6 0 10 7 10 15 0 8 5 15
11 15 5 0 7 5 4 10 -3 6 4 10 17 10 18 0 20 2 8 10 -13 8 -12 10 3 10 10 0 15
5 12 10 -3 6 -1 10 4 10 6 0 10 3 9 8 -3 8 10 25 59 77 17 18 29 36 26 39 -3
3 2 8 11 12 9 3 13 10 10 15 -3 5 2 12 10 15 9 3 14 10 11 14 -3 4 2 11 11 14
8 3 12 11 9 17 -4 6 2 13 14 16 11 3 19 8 16 12 -2 4 7 15 20 25 19 14 22 22
15 36 -5 9 -6 20 -3 24 3 3 3 6 -1 6 -3 0 -11 -11 -16 -25z m-290 -419 c0 -2
-8 -10 -17 -17 -16 -13 -17 -12 -4 4 13 16 21 21 21 13z"/>
<path d="M8250 7801 c0 -6 -6 -11 -13 -11 -8 0 -24 -9 -37 -20 -13 -11 -29
-20 -37 -20 -8 0 -11 -4 -8 -10 3 -5 -1 -10 -9 -10 -9 0 -16 -4 -16 -10 0 -5
-7 -10 -15 -10 -8 0 -15 -5 -15 -11 0 -5 -4 -7 -10 -4 -5 3 -10 1 -10 -4 0 -6
-7 -11 -15 -11 -8 0 -20 -9 -27 -20 -7 -11 -19 -20 -26 -20 -7 0 -15 -7 -18
-15 -4 -8 -10 -13 -14 -10 -5 3 -11 1 -15 -5 -4 -6 -11 -8 -16 -5 -5 4 -9 -1
-9 -9 0 -9 -7 -16 -15 -16 -8 0 -15 -4 -15 -10 0 -5 -7 -10 -15 -10 -8 0 -15
-4 -15 -10 0 -5 -6 -10 -14 -10 -8 0 -16 -4 -18 -9 -1 -5 -9 -11 -17 -13 -7
-2 -24 -13 -37 -26 -14 -13 -29 -20 -37 -16 -6 4 -9 4 -5 -1 4 -4 -14 -22 -40
-39 -26 -17 -48 -34 -50 -38 -2 -5 -10 -8 -18 -8 -8 0 -14 -4 -14 -8 0 -5 -20
-19 -45 -31 -25 -12 -45 -25 -45 -29 0 -4 -12 -16 -27 -26 -16 -12 -23 -14
-18 -5 4 8 -2 4 -14 -9 -12 -12 -27 -19 -33 -16 -7 5 -8 2 -4 -5 5 -8 0 -14
-13 -18 -12 -3 -21 -9 -21 -14 0 -5 -6 -9 -14 -9 -8 0 -16 -3 -18 -7 -1 -5
-30 -26 -63 -48 -33 -22 -66 -47 -73 -55 -12 -13 -13 -13 -6 0 5 8 -6 4 -23
-10 -17 -14 -42 -33 -57 -44 l-26 -19 26 -23 c14 -13 32 -24 40 -24 8 0 17 -7
20 -15 4 -8 12 -15 20 -15 8 0 14 -5 14 -11 0 -5 5 -7 10 -4 6 3 10 2 10 -3 0
-5 18 -17 39 -28 22 -10 37 -22 35 -26 -3 -5 2 -8 10 -8 9 0 16 -5 16 -11 0
-5 5 -7 10 -4 6 3 10 1 10 -5 0 -6 4 -9 8 -6 5 3 14 -4 22 -14 8 -10 17 -17
21 -14 4 2 14 -5 22 -16 7 -11 17 -17 20 -13 4 3 7 1 7 -5 0 -7 3 -11 8 -11
18 3 35 -2 29 -8 -4 -4 10 -15 30 -24 21 -10 34 -19 28 -19 -5 0 8 -9 30 -20
22 -11 36 -20 30 -20 -5 0 5 -7 23 -15 17 -8 32 -19 32 -25 0 -6 5 -8 10 -5 6
3 13 -1 16 -9 3 -9 10 -13 15 -10 5 3 9 1 9 -4 0 -4 21 -19 46 -31 25 -13 48
-29 51 -37 3 -8 9 -11 14 -8 5 3 9 0 9 -7 0 -7 3 -10 6 -6 4 3 12 1 20 -6 34
-30 44 -37 44 -30 0 4 5 0 11 -9 5 -10 17 -18 24 -18 8 0 15 -5 15 -12 0 -6 3
-9 6 -5 6 5 15 0 49 -31 8 -7 18 -13 22 -13 4 -1 7 -5 5 -11 -1 -5 2 -7 8 -3
5 3 10 1 10 -5 0 -6 4 -9 9 -5 6 3 22 -7 37 -22 14 -16 23 -21 20 -13 -4 8 0
6 8 -4 9 -11 16 -17 16 -13 0 7 11 0 45 -31 21 -19 72 -23 79 -6 4 10 11 11
31 4 14 -5 25 -6 25 0 0 5 12 7 26 4 16 -3 23 -1 19 6 -4 6 6 11 24 11 40 2
43 3 60 13 11 7 12 6 6 -5 -7 -11 -6 -12 6 -3 13 11 68 24 117 27 12 1 22 5
22 9 0 4 11 5 25 2 14 -2 25 -1 25 4 0 4 14 9 32 10 18 2 36 8 40 15 6 9 8 9
8 -2 0 -9 4 -10 13 -4 6 6 19 10 27 10 8 1 29 4 45 8 17 4 38 7 48 8 9 1 17 6
17 12 0 5 5 3 10 -5 6 -10 10 -11 10 -3 0 7 3 12 8 12 4 -1 9 0 12 1 3 1 23 3
45 4 22 2 50 8 63 15 13 7 28 10 35 8 7 -2 21 0 32 6 11 6 38 12 60 13 22 1
42 3 45 4 3 1 8 2 13 1 4 0 7 3 7 7 0 5 15 8 34 7 19 0 32 3 30 7 -2 4 4 7 13
7 55 2 83 7 83 13 0 4 9 5 20 3 11 -2 20 0 20 5 0 5 9 7 20 5 11 -2 20 1 20 7
0 7 4 7 14 -1 10 -9 16 -8 26 4 8 10 21 13 38 8 15 -3 23 -2 19 4 -3 5 4 9 16
8 12 -1 28 3 36 9 12 9 13 8 7 -3 -5 -8 3 -6 20 5 15 11 25 13 21 7 -5 -7 -4
-13 2 -13 6 0 11 5 11 11 0 6 7 9 15 5 8 -3 15 -1 15 5 0 6 8 5 21 -2 15 -8
19 -8 15 0 -4 6 0 11 11 12 25 1 52 6 71 14 9 4 33 8 52 10 19 1 42 5 50 8 8
4 26 8 40 9 14 2 31 7 39 12 11 7 12 6 6 -5 -8 -12 -6 -12 8 0 9 7 35 14 57
14 24 1 39 5 37 11 -3 7 12 11 37 10 22 0 47 4 55 10 12 9 13 8 6 -4 -7 -12
-6 -13 6 -3 8 6 26 13 39 15 14 2 31 7 38 11 7 5 12 3 12 -5 0 -7 5 -5 11 6 9
15 13 16 20 5 5 -9 9 -10 9 -2 0 6 11 10 25 8 14 -1 25 1 25 5 0 5 14 7 30 6
17 -1 30 2 30 7 0 5 7 7 15 3 8 -3 15 -2 15 2 0 5 10 9 23 9 43 3 67 7 67 13
0 4 16 6 35 5 19 0 35 3 35 8 0 5 6 7 14 4 8 -3 17 -3 20 1 8 7 30 12 69 14
15 0 27 4 27 7 0 4 12 8 28 9 38 3 55 7 67 13 6 3 23 6 39 7 16 1 36 8 44 15
13 10 14 9 7 -3 -7 -12 -6 -13 6 -4 8 6 22 10 32 9 9 -2 17 1 17 6 0 6 5 7 11
3 6 -3 15 0 20 7 7 11 9 11 9 1 0 -9 5 -10 19 -3 10 6 21 7 25 4 3 -3 6 0 6 8
0 11 2 11 10 -1 6 -9 10 -11 10 -3 0 7 7 10 15 7 9 -4 15 -1 15 7 0 9 3 10 11
2 8 -8 18 -7 37 3 14 7 29 11 34 8 4 -3 8 0 8 6 0 6 4 9 9 6 7 -5 69 5 121 18
8 3 25 5 38 5 13 1 21 4 18 9 -2 4 11 7 30 6 19 -1 34 1 34 5 0 4 12 6 28 6
15 -1 33 3 39 8 7 5 20 7 28 3 8 -3 15 0 15 6 0 6 3 8 6 5 4 -3 15 -2 25 4 14
7 19 6 19 -3 0 -9 3 -9 10 2 5 8 10 12 10 8 0 -4 15 -2 33 4 17 5 39 10 47 10
8 1 18 6 22 12 5 7 8 7 8 -2 0 -8 5 -10 13 -5 13 8 17 9 45 12 13 2 12 4 -6
12 -13 5 -28 7 -33 3 -5 -3 -9 -1 -9 3 0 9 -36 16 -77 15 -13 0 -23 5 -23 11
0 6 -3 7 -7 4 -3 -4 -13 -1 -21 6 -13 10 -14 9 -8 -1 7 -12 4 -12 -15 -1 -30
16 -50 17 -68 4 -11 -7 -13 -7 -7 3 7 11 -10 17 -41 13 -7 -1 -13 3 -13 8 0 5
-9 8 -20 6 -11 -2 -20 0 -20 4 0 4 -13 6 -30 5 -16 -1 -30 1 -30 5 0 7 -32 12
-87 15 -17 0 -29 4 -26 9 4 6 -42 11 -50 5 -2 -2 -12 4 -22 12 -17 13 -18 13
-10 0 7 -13 6 -13 -7 -2 -9 7 -34 14 -56 15 -23 0 -39 4 -36 8 2 4 -8 7 -21 8
-49 3 -55 4 -55 14 0 5 -8 3 -17 -4 -9 -8 -14 -9 -10 -3 4 7 -3 14 -18 17 -14
2 -28 1 -30 -3 -3 -5 -21 0 -41 9 -20 10 -50 17 -65 15 -16 -2 -29 0 -29 5 0
5 -12 9 -26 9 -15 0 -30 6 -35 13 -7 11 -9 11 -9 1 0 -8 -5 -10 -12 -6 -7 4
-25 9 -42 11 -16 2 -36 9 -45 16 -12 10 -13 9 -6 -2 6 -11 5 -12 -6 -5 -16 10
-44 16 -76 17 -13 1 -23 4 -23 8 0 5 -9 6 -20 4 -11 -2 -22 0 -25 5 -3 5 -13
6 -22 3 -9 -4 -14 -2 -10 3 3 6 -10 10 -31 9 -22 0 -43 6 -50 15 -8 9 -11 10
-6 1 5 -10 1 -11 -17 -5 -13 4 -32 8 -41 8 -10 0 -18 7 -18 16 0 9 -3 11 -8 5
-6 -10 -23 -12 -37 -5 -10 5 -25 8 -51 9 -16 1 -23 5 -18 13 4 7 3 8 -4 4 -15
-9 -104 3 -97 13 2 4 -2 8 -10 8 -8 0 -11 -5 -8 -11 4 -6 0 -5 -8 1 -9 7 -25
11 -37 8 -16 -3 -19 0 -15 12 5 12 2 13 -13 5 -13 -7 -25 -7 -37 0 -10 5 -31
10 -47 10 -17 1 -30 4 -30 8 0 7 -10 9 -82 13 -20 1 -34 5 -32 9 3 4 -4 7 -13
7 -56 3 -81 7 -76 13 4 7 -34 12 -74 11 -7 -1 -13 2 -13 6 0 3 -17 7 -37 9
-20 1 -43 8 -52 15 -12 10 -13 9 -6 -3 6 -12 5 -13 -6 -2 -7 6 -22 12 -34 12
-12 0 -27 6 -34 13 -9 7 -11 7 -8 1 5 -8 -2 -11 -17 -10 -13 0 -22 4 -19 9 4
7 -10 10 -39 8 -9 -1 -19 3 -23 9 -5 8 -11 7 -23 -2 -12 -10 -14 -10 -8 0 5 8
-1 12 -19 12 -15 0 -36 5 -47 11 -15 8 -19 8 -13 -1 5 -8 -2 -7 -21 2 -16 8
-37 13 -46 11 -10 -3 -18 0 -18 6 0 6 -5 11 -11 11 -5 0 -7 -6 -3 -12 6 -10 5
-10 -7 -1 -9 7 -32 14 -52 15 -20 2 -37 6 -37 10 0 4 -9 7 -20 7 -11 1 -29 1
-40 2 -11 0 -20 5 -20 10 0 6 -3 8 -8 5 -4 -2 -27 0 -52 5 -25 6 -51 10 -57
11 -7 1 -13 6 -13 11 0 5 -6 4 -14 -2 -10 -9 -16 -9 -21 -1 -4 6 -13 9 -21 6
-8 -3 -14 -2 -14 2 0 7 -32 13 -82 15 -10 1 -18 5 -18 9 0 4 -7 5 -15 2 -8 -4
-15 -2 -15 4 0 5 -11 8 -25 7 -14 -2 -25 0 -25 4 0 4 -12 8 -27 8 -29 2 -78
10 -78 13 0 1 -16 4 -35 7 -19 2 -41 8 -50 12 -8 5 -25 7 -37 6 -13 -1 -23 2
-23 6 0 4 -9 6 -20 4 -11 -2 -20 1 -20 7 0 5 -7 7 -16 4 -9 -4 -23 -1 -30 5
-10 8 -14 8 -14 0z"/>
<path d="M5825 7787 c-4 -8 -20 -13 -45 -12 -22 1 -40 -3 -40 -7 0 -4 -3 -7
-7 -7 -5 1 -10 0 -13 -1 -5 -2 -54 -10 -82 -13 -10 0 -18 -4 -18 -8 0 -3 -11
-5 -25 -4 -14 2 -27 -1 -31 -6 -3 -5 -10 -7 -15 -4 -5 4 -9 2 -9 -2 0 -5 -14
-8 -30 -7 -17 1 -33 -2 -36 -7 -3 -5 -10 -9 -15 -9 -6 0 -7 5 -3 11 3 6 -5 4
-18 -5 -14 -9 -28 -13 -31 -10 -4 4 -14 1 -24 -7 -15 -12 -16 -12 -8 1 7 13 6
13 -11 0 -10 -8 -38 -15 -61 -15 -22 0 -39 -3 -36 -7 4 -7 -42 -12 -50 -5 -2
1 -11 -4 -19 -11 -13 -10 -17 -10 -21 0 -4 11 -6 10 -6 0 -1 -7 -5 -10 -11 -7
-5 3 -10 2 -10 -3 0 -5 -12 -8 -27 -6 -15 1 -32 -1 -38 -5 -5 -3 -23 -8 -40
-10 -16 -2 -36 -8 -44 -14 -12 -10 -13 -9 -6 3 7 12 6 13 -6 3 -8 -6 -30 -14
-49 -16 -19 -3 -35 -6 -35 -7 0 -1 -15 -3 -34 -6 -19 -2 -41 -10 -50 -17 -12
-10 -13 -9 -6 2 6 10 4 12 -5 6 -12 -7 -42 -14 -77 -17 -7 -1 -13 -6 -13 -12
0 -6 -5 -4 -10 4 -5 8 -10 10 -10 5 0 -6 -11 -12 -26 -13 -14 -1 -34 -7 -46
-13 -16 -9 -19 -8 -13 2 6 9 4 10 -6 3 -8 -5 -23 -9 -34 -9 -11 0 -27 -5 -35
-10 -14 -9 -44 -14 -92 -16 -10 0 -18 -3 -18 -7 0 -4 -8 -8 -17 -9 -50 -3 -73
-8 -73 -18 0 -5 -5 -3 -10 5 -6 9 -10 10 -10 3 0 -6 -9 -10 -20 -8 -11 2 -20
0 -20 -4 0 -5 -11 -7 -25 -6 -14 2 -25 0 -25 -4 0 -4 -14 -8 -32 -9 -18 -2
-36 -8 -40 -15 -5 -7 -8 -8 -8 -1 0 13 -39 12 -48 -2 -4 -5 -16 -9 -27 -8 -11
0 -26 -4 -32 -9 -9 -6 -13 -5 -13 4 0 11 -2 12 -9 1 -7 -12 -29 -17 -106 -25
-11 -1 -25 -9 -32 -17 -9 -11 -12 -12 -13 -2 0 7 -4 10 -10 7 -13 -8 -51 -17
-72 -17 -10 1 -21 -4 -24 -10 -4 -6 -10 -5 -15 3 -7 11 -9 11 -9 1 0 -7 -4
-11 -9 -7 -5 3 -12 1 -16 -5 -9 -15 -28 -12 -19 3 4 6 -3 3 -16 -8 -13 -11
-20 -14 -16 -7 7 11 4 12 -13 3 -12 -7 -26 -9 -31 -6 -6 3 -10 1 -10 -5 0 -7
-7 -9 -16 -6 -9 3 -21 3 -27 -1 -15 -10 -36 -14 -69 -15 -16 -1 -28 -5 -28 -9
0 -4 -9 -6 -20 -4 -11 2 -20 0 -20 -4 0 -4 -10 -7 -22 -6 -13 1 -27 -1 -33 -5
-5 -3 -22 -7 -37 -8 -42 -3 -52 -6 -65 -22 -11 -13 -12 -12 -6 5 6 18 5 18
-10 7 -9 -8 -34 -15 -56 -15 -21 -1 -37 -5 -34 -9 2 -5 -5 -9 -16 -9 -30 -2
-34 -3 -50 -13 -10 -7 -12 -6 -6 3 6 10 3 11 -14 2 -12 -7 -26 -9 -31 -6 -6 3
-10 0 -10 -7 0 -9 -3 -9 -10 2 -8 12 -10 12 -10 1 0 -9 -8 -12 -25 -9 -13 3
-22 1 -19 -3 4 -8 -34 -14 -58 -10 -5 0 -8 -4 -8 -10 0 -5 -4 -8 -9 -5 -4 3
-22 1 -39 -3 -18 -6 -34 -5 -40 1 -6 6 -12 6 -17 -3 -6 -8 -4 -10 5 -4 8 5 11
4 7 -2 -6 -9 -40 -14 -89 -14 -10 0 -18 -4 -18 -7 0 -4 -12 -9 -27 -10 -16 -1
-39 -5 -53 -8 -14 -4 -37 -7 -52 -7 -15 0 -25 -3 -23 -7 3 -4 -5 -8 -18 -8
-32 0 -51 -6 -59 -17 -5 -6 -8 -4 -8 5 -1 11 -4 10 -16 -5 -13 -17 -16 -18
-24 -5 -7 10 -12 12 -17 4 -7 -10 -67 -23 -119 -27 -11 0 -21 -7 -21 -14 0 -9
4 -10 10 -4 6 6 19 4 35 -7 21 -14 24 -14 17 -2 -8 13 -6 13 8 2 9 -8 21 -11
27 -7 5 3 10 1 10 -6 0 -7 3 -9 7 -6 3 4 13 1 21 -6 13 -9 14 -9 8 1 -4 6 -2
12 3 12 6 0 11 -4 11 -9 0 -5 11 -8 25 -6 14 1 25 -1 25 -5 0 -4 10 -6 22 -5
13 1 29 -2 35 -7 7 -6 19 -8 27 -5 7 3 17 2 22 -3 5 -5 26 -10 47 -12 20 -1
37 -5 37 -9 0 -5 9 -6 20 -4 11 2 22 -1 25 -6 4 -5 11 -6 17 -3 6 4 14 0 19
-7 7 -12 9 -12 9 0 0 11 5 9 22 -5 12 -10 18 -13 13 -5 -6 11 -4 13 11 7 34
-13 107 -29 142 -30 12 0 22 -4 22 -9 0 -5 9 -7 20 -4 11 3 20 1 20 -3 0 -4 9
-6 20 -3 11 3 20 1 20 -4 0 -8 34 -14 80 -15 8 -1 21 -6 29 -12 12 -9 13 -8 6
4 -7 12 -6 13 6 3 9 -7 30 -13 47 -15 18 -1 32 -5 32 -8 0 -5 37 -10 88 -13 6
0 12 -4 12 -9 0 -4 3 -7 8 -7 4 1 22 1 40 0 23 -1 31 -5 26 -13 -5 -10 -4 -10
6 -1 15 14 43 5 33 -11 -4 -6 0 -6 9 2 11 9 18 10 23 2 3 -6 10 -8 15 -5 5 3
19 1 31 -6 17 -9 20 -8 13 3 -6 10 -5 11 8 1 8 -7 27 -14 42 -15 14 -1 26 -6
26 -11 0 -4 5 -5 11 -1 6 3 15 0 20 -7 6 -10 9 -10 9 -2 0 9 7 10 24 3 13 -5
27 -6 30 -3 3 4 6 1 6 -4 0 -6 11 -10 25 -8 14 1 28 -1 30 -5 3 -5 14 -6 25
-3 12 3 20 0 20 -7 0 -7 8 -9 20 -5 11 3 20 2 20 -2 0 -5 14 -8 30 -7 17 1 30
-3 30 -9 0 -6 3 -7 7 -4 3 4 12 2 20 -4 9 -9 13 -8 13 0 0 8 5 9 19 2 10 -6
21 -7 25 -4 3 3 6 2 6 -3 0 -8 30 -14 88 -17 12 -1 22 -4 22 -7 0 -3 17 -7 37
-8 21 -2 40 -6 43 -10 3 -4 15 -8 28 -9 55 -5 72 -8 72 -14 0 -3 18 -5 39 -5
22 1 39 -3 38 -7 -2 -8 41 -16 96 -18 9 0 15 -4 13 -8 -3 -4 8 -7 25 -6 16 1
37 -4 47 -11 12 -9 21 -9 29 -2 9 7 13 7 13 0 0 -6 8 -9 18 -7 9 1 22 0 27 -4
6 -3 17 -6 25 -7 8 0 23 -4 32 -8 9 -4 22 -5 28 -1 5 3 10 2 10 -3 0 -5 10 -9
23 -8 12 1 33 -5 47 -13 24 -15 24 -15 10 3 -14 18 -14 19 10 5 14 -7 33 -13
43 -14 10 0 22 -7 27 -15 6 -10 10 -11 10 -3 0 9 7 10 25 3 14 -5 29 -9 33 -8
17 3 93 -15 98 -24 3 -5 13 -3 22 4 12 10 14 10 8 1 -5 -10 3 -13 28 -13 21 0
36 -5 36 -12 0 -9 3 -9 12 0 9 9 15 7 25 -6 8 -9 11 -11 7 -3 -6 11 -3 13 12
6 10 -4 29 -8 42 -8 12 -1 22 -5 22 -10 0 -5 9 -7 20 -4 11 3 20 2 20 -2 0 -4
14 -7 30 -6 17 1 30 -1 30 -4 0 -6 17 -9 72 -14 13 -1 26 -6 29 -10 3 -4 25
-9 50 -11 26 -3 43 -9 41 -15 -2 -9 3 -9 16 -2 13 7 27 6 46 -4 18 -10 24 -10
19 -2 -4 7 0 6 10 -2 10 -8 20 -11 23 -8 5 5 39 -3 78 -19 13 -5 17 -4 12 4
-4 7 4 5 20 -3 15 -8 31 -12 36 -9 4 3 8 -1 8 -8 0 -9 3 -9 10 2 5 8 10 10 10
3 0 -6 6 -10 13 -9 43 9 66 19 61 27 -3 5 2 9 10 9 9 0 16 5 16 11 0 5 5 7 10
4 6 -3 10 -1 10 4 0 6 7 11 15 11 8 0 15 3 15 8 0 4 16 16 35 26 19 10 32 23
29 27 -3 5 2 6 10 3 9 -3 16 -1 16 5 0 6 5 11 11 11 7 0 20 10 30 22 11 11 19
18 19 14 0 -4 13 1 29 10 17 10 28 20 26 24 -2 3 5 12 17 19 11 7 17 8 13 2
-12 -20 5 -11 36 19 18 16 35 27 39 25 5 -3 10 -1 12 3 6 14 186 131 192 125
3 -4 6 1 6 10 0 9 5 19 12 23 7 5 8 3 3 -7 -5 -8 0 -7 12 4 11 9 23 14 26 10
4 -3 7 1 7 11 0 9 5 14 10 11 6 -3 10 -2 10 4 0 5 20 20 45 32 25 12 45 26 45
31 0 4 7 8 15 8 8 0 15 4 15 8 0 5 18 17 40 27 22 10 40 21 40 25 0 4 16 15
35 26 19 10 35 22 35 27 0 4 5 5 10 2 6 -3 10 -2 10 2 0 5 22 22 50 38 27 17
50 34 50 38 0 5 5 5 10 2 6 -3 10 -2 10 4 0 6 -12 18 -27 28 -16 10 -32 23
-36 30 -4 7 -15 13 -22 13 -8 0 -24 9 -35 20 -11 11 -25 21 -32 23 -6 1 -19 9
-29 17 -40 34 -49 40 -59 40 -5 0 -10 5 -10 10 0 6 -7 10 -15 10 -8 0 -15 4
-15 9 0 5 -8 12 -19 16 -10 3 -31 17 -45 30 -14 13 -26 22 -26 19 0 -3 -15 6
-33 20 -19 15 -39 26 -46 26 -7 0 -10 4 -7 8 2 4 -8 13 -23 20 -15 7 -37 21
-48 31 -12 11 -24 17 -27 14 -3 -4 -6 -1 -6 5 0 7 -7 12 -15 12 -7 0 -19 8
-24 18 -6 9 -11 13 -11 8 0 -6 -7 -1 -16 10 -8 10 -12 13 -8 5 5 -9 3 -12 -4
-7 -7 4 -12 15 -13 24 0 12 -2 13 -6 4 -4 -10 -9 -8 -20 7 -8 12 -21 21 -29
21 -8 0 -14 3 -14 8 0 9 -62 46 -72 44 -5 -1 -8 5 -8 15 0 9 -3 13 -7 10 -3
-4 -12 1 -20 11 -10 11 -12 12 -8 2 4 -8 -2 -5 -13 8 -11 12 -25 22 -32 22 -6
0 -23 11 -37 24 -14 13 -37 30 -52 38 -14 7 -32 20 -39 28 -12 13 -13 13 -6 0
4 -9 -1 -7 -14 5 -36 34 -51 45 -62 45 -5 0 -10 5 -10 10 0 13 -47 13 -55 0
-4 -7 -13 -7 -26 0 -14 8 -21 8 -24 -3z"/>
<path d="M7075 7008 c-4 -10 -12 -15 -19 -11 -6 3 -8 3 -4 -2 8 -9 -22 -65
-35 -65 -4 0 -6 -4 -2 -9 3 -6 -4 -15 -15 -21 -11 -6 -18 -15 -16 -19 3 -4 -8
-26 -24 -48 -16 -22 -26 -44 -22 -48 4 -5 3 -6 -3 -3 -11 7 -28 -10 -33 -32
-2 -8 -8 -19 -15 -25 -7 -5 -21 -27 -32 -47 -11 -21 -24 -38 -29 -38 -5 0 -7
-3 -3 -6 5 -5 -10 -27 -41 -60 -7 -8 -10 -14 -6 -14 4 0 -1 -9 -11 -20 -10
-11 -14 -20 -9 -20 5 -1 -2 -7 -16 -15 -14 -7 -24 -17 -23 -22 2 -11 -39 -83
-48 -83 -4 0 -10 -11 -13 -25 -4 -16 -11 -23 -18 -19 -7 5 -9 2 -6 -7 3 -9 -5
-25 -18 -38 -13 -13 -24 -29 -24 -37 0 -8 -4 -14 -10 -14 -5 0 -10 -7 -10 -15
0 -8 -4 -15 -10 -15 -5 0 -10 -7 -10 -15 0 -8 -4 -15 -10 -15 -5 0 -10 -7 -10
-15 0 -8 -4 -15 -9 -15 -5 0 -13 -9 -16 -21 -4 -11 -21 -37 -38 -57 -18 -20
-25 -32 -17 -28 8 4 6 0 -4 -8 -11 -9 -17 -16 -13 -16 5 0 2 -6 -5 -14 -7 -8
-16 -12 -20 -9 -4 2 -5 -3 -2 -11 3 -9 1 -16 -6 -16 -6 0 -8 -4 -5 -10 3 -5 1
-10 -5 -10 -6 0 -14 -8 -17 -17 -4 -10 -13 -29 -22 -42 -17 -27 -23 -51 -12
-51 4 0 7 -27 7 -59 -1 -33 2 -57 6 -55 4 2 9 0 13 -6 3 -5 1 -10 -6 -10 -8 0
-8 -4 -1 -13 7 -8 7 -18 2 -27 -5 -9 -5 -19 2 -27 5 -7 7 -20 4 -29 -5 -12 -2
-15 11 -10 15 5 15 4 -1 -9 -13 -10 -15 -15 -6 -15 7 0 10 -3 7 -7 -4 -3 -2
-12 4 -20 8 -9 8 -13 1 -13 -8 0 -8 -9 0 -31 6 -16 8 -33 4 -36 -3 -3 -1 -12
5 -20 9 -10 8 -13 -1 -13 -9 0 -7 -8 5 -26 9 -15 12 -23 6 -20 -6 4 -11 3 -11
-3 0 -5 5 -13 10 -16 8 -5 8 -11 1 -19 -6 -7 -8 -16 -4 -20 4 -3 8 -14 10 -24
8 -45 15 -109 14 -130 -1 -16 3 -21 12 -16 9 5 9 4 0 -6 -8 -9 -9 -19 -2 -32
7 -13 6 -18 -3 -18 -9 0 -10 -3 -2 -8 6 -4 12 -14 12 -22 1 -8 3 -26 5 -40 2
-14 -2 -31 -7 -39 -8 -11 -8 -13 1 -8 6 4 14 3 18 -3 3 -5 1 -10 -6 -10 -7 0
-5 -8 7 -22 10 -12 13 -18 7 -14 -15 8 -16 -8 -4 -39 5 -11 4 -25 -1 -32 -7
-8 -7 -13 -1 -13 10 0 11 -3 15 -60 2 -19 7 -41 11 -47 5 -8 3 -13 -4 -13 -8
0 -9 -3 0 -13 6 -8 8 -17 4 -20 -3 -4 0 -14 8 -24 12 -15 12 -16 -1 -8 -12 6
-13 5 -2 -6 6 -7 12 -17 12 -22 0 -4 -6 -5 -12 -1 -10 6 -10 5 -1 -7 6 -8 10
-29 8 -46 -1 -18 1 -30 5 -28 5 3 8 -16 8 -42 0 -27 1 -52 2 -58 1 -5 2 -13 1
-17 0 -5 4 -8 9 -8 7 0 7 -6 0 -19 -7 -14 -7 -22 1 -26 6 -4 8 -13 5 -21 -3
-8 0 -14 7 -14 8 0 6 -4 -3 -10 -9 -6 -11 -10 -3 -10 7 0 10 -6 7 -14 -3 -8 0
-24 6 -36 8 -15 8 -20 1 -16 -12 8 -15 -6 -4 -17 6 -7 12 -43 16 -102 2 -16 6
-36 11 -44 7 -11 6 -12 -5 -6 -12 8 -12 6 0 -8 11 -14 11 -17 0 -17 -12 0 -12
-2 0 -9 7 -5 11 -13 7 -19 -3 -6 0 -13 6 -15 10 -4 9 -8 -2 -16 -8 -6 -10 -11
-4 -11 6 0 10 -13 9 -30 -1 -16 1 -30 4 -30 3 0 7 -11 7 -25 1 -16 -2 -23 -10
-18 -6 3 -4 -2 4 -13 9 -10 15 -34 14 -51 -1 -18 2 -33 8 -33 6 0 5 -6 -2 -15
-8 -10 -9 -15 -2 -15 6 0 9 -6 6 -14 -3 -8 0 -25 7 -37 9 -18 9 -24 0 -27 -9
-3 -9 -7 0 -18 6 -8 8 -14 4 -14 -4 0 -1 -8 6 -17 12 -14 12 -15 1 -9 -11 7
-12 4 -3 -11 7 -14 7 -24 -2 -33 -9 -10 -9 -11 1 -6 9 5 12 -4 12 -33 0 -22 5
-43 10 -46 7 -4 7 -12 0 -24 -5 -10 -6 -22 -2 -26 4 -3 8 -19 8 -33 1 -15 3
-27 4 -27 1 0 3 -14 4 -30 1 -17 6 -37 11 -44 5 -9 4 -12 -3 -7 -11 6 -10 -7
1 -34 4 -8 8 -35 10 -60 1 -25 6 -51 10 -57 5 -8 3 -13 -5 -13 -9 0 -9 -3 -2
-8 6 -4 10 -17 9 -30 -1 -13 2 -25 7 -28 5 -3 4 -12 -2 -19 -8 -10 -8 -15 0
-20 6 -4 8 -15 5 -25 -3 -10 -1 -21 5 -25 5 -3 10 -11 10 -16 0 -6 -6 -7 -12
-3 -10 6 -10 5 -1 -7 7 -9 14 -37 14 -62 1 -25 6 -44 11 -41 12 8 5 -19 -7
-28 -7 -5 -7 -8 0 -8 6 0 11 -18 12 -41 1 -22 7 -46 13 -54 8 -10 8 -15 -1
-21 -8 -5 -9 -3 -4 6 5 8 4 11 -3 6 -12 -7 -5 -36 8 -36 5 0 7 -13 5 -30 -2
-16 1 -32 7 -36 7 -4 6 -10 -3 -15 -11 -8 -11 -11 4 -20 9 -6 14 -15 10 -22
-9 -15 -11 -57 -2 -57 4 0 6 -23 6 -50 -1 -28 2 -50 7 -50 4 0 6 -7 3 -15 -4
-8 -1 -17 5 -21 7 -4 6 -9 -3 -15 -8 -5 -9 -9 -4 -9 6 0 11 -21 13 -47 2 -26
8 -51 15 -55 8 -5 8 -8 1 -8 -6 0 -11 -7 -11 -15 0 -8 3 -15 7 -15 4 0 6 -10
5 -23 -1 -12 3 -28 9 -36 8 -11 8 -13 -1 -7 -18 10 -16 -9 2 -24 12 -10 13
-16 3 -27 -7 -9 -8 -17 -2 -21 5 -4 9 -24 8 -45 0 -20 4 -37 9 -37 5 0 3 -8
-4 -17 -10 -11 -10 -14 -1 -9 6 4 12 2 12 -3 0 -6 -6 -11 -12 -11 -9 0 -9 -3
1 -9 16 -10 19 -69 6 -91 -5 -9 -4 -11 3 -6 7 4 12 0 13 -11 2 -44 8 -85 13
-91 3 -3 1 -11 -5 -19 -7 -7 -7 -13 -2 -13 6 0 11 -12 12 -27 2 -36 8 -78 11
-78 6 0 5 -47 -2 -51 -4 -3 -1 -15 7 -27 18 -25 20 -41 4 -31 -7 4 -7 -1 1
-16 6 -12 9 -24 6 -27 -2 -3 -1 -16 4 -29 6 -14 6 -26 0 -29 -5 -3 -7 -12 -4
-20 4 -8 9 -13 13 -11 3 2 7 -17 7 -42 1 -26 4 -63 8 -82 6 -33 16 -116 18
-150 0 -8 5 -21 11 -27 7 -10 4 -13 -9 -14 -15 0 -16 -2 -4 -7 9 -4 15 -20 14
-42 0 -19 2 -39 5 -45 11 -21 10 -45 -2 -46 -6 0 -3 -4 8 -9 11 -5 14 -9 7 -9
-8 -1 -10 -6 -6 -13 5 -7 8 -29 9 -49 1 -21 7 -44 14 -52 9 -12 9 -17 0 -23
-8 -5 -9 -3 -4 6 6 9 4 11 -5 5 -10 -6 -9 -11 5 -22 11 -7 13 -13 7 -13 -9 0
-10 -6 -4 -17 4 -10 7 -28 6 -40 0 -13 4 -23 10 -23 6 0 4 -5 -4 -10 -8 -5
-10 -10 -4 -10 9 0 13 -27 16 -117 1 -18 4 -33 7 -33 3 0 7 -12 7 -27 3 -65 8
-99 16 -110 5 -6 5 -14 -2 -18 -6 -3 -7 -12 -3 -18 10 -16 14 -36 14 -79 0
-21 4 -40 10 -43 6 -4 5 -13 -1 -24 -5 -10 -5 -22 0 -27 4 -5 10 -36 13 -69 8
-109 31 -123 36 -23 1 29 6 57 11 63 6 7 5 16 -2 23 -9 9 -9 12 1 12 11 0 11
3 0 17 -12 14 -12 16 0 8 11 -6 13 -3 9 12 -3 11 -1 28 4 37 6 11 5 16 -4 16
-9 1 -7 5 5 14 18 14 24 32 7 21 -10 -6 -9 21 1 40 3 6 5 17 4 25 -1 8 2 25 7
37 4 13 3 25 -3 29 -7 4 -7 10 0 18 6 7 8 16 4 19 -3 4 0 7 8 7 11 0 11 2 -1
10 -9 6 -10 10 -3 10 6 0 10 8 8 18 -2 10 1 25 5 32 5 8 4 22 -2 33 -8 15 -7
18 3 12 9 -6 11 -3 6 8 -4 10 -1 17 6 17 8 0 8 3 -2 9 -11 7 -11 9 0 14 11 4
11 6 1 6 -8 1 -10 6 -5 14 8 13 13 43 14 89 0 16 5 28 11 28 6 0 6 6 -2 15 -7
8 -8 15 -3 15 5 0 9 18 8 40 -1 23 3 40 9 40 6 0 4 5 -4 10 -11 7 -12 10 -2
10 9 0 11 7 7 21 -4 12 -3 19 1 16 5 -3 10 18 10 46 1 29 5 61 9 71 7 15 5 18
-6 12 -8 -4 -5 0 5 8 11 9 15 16 9 16 -8 0 -9 9 -4 28 4 15 7 37 6 49 -1 13 1
23 5 23 4 0 5 11 2 25 -2 14 0 25 4 25 5 0 10 21 11 48 2 78 6 113 12 116 3 2
6 29 6 60 0 44 3 55 14 51 10 -4 11 -2 4 7 -6 7 -9 22 -7 33 2 11 5 36 7 55 2
20 7 42 12 49 5 10 4 12 -3 7 -7 -4 -12 -2 -12 3 0 6 4 11 9 11 5 0 10 17 10
38 0 20 3 53 6 72 3 19 7 46 8 60 1 14 6 31 10 38 5 7 4 12 -3 12 -7 0 -8 6
-1 19 6 10 8 28 6 40 -2 11 -1 21 3 21 4 0 7 21 7 46 -1 25 2 47 6 49 3 3 7
19 8 37 1 18 3 47 4 63 2 17 6 36 10 43 5 6 4 12 -2 12 -6 0 -8 7 -5 15 4 8
11 12 16 9 6 -4 5 3 -1 15 -7 11 -8 21 -4 21 4 0 7 15 7 32 -1 18 2 41 7 50 6
11 5 18 -4 21 -9 4 -9 6 1 6 7 1 10 6 7 11 -3 6 -1 10 6 10 8 0 9 3 0 13 -6 8
-8 17 -5 20 4 3 8 23 10 44 1 21 5 49 8 63 3 14 0 27 -7 32 -9 6 -8 8 3 8 12
0 15 10 14 40 0 22 4 40 10 40 6 0 6 4 -2 12 -7 7 -8 17 -2 27 4 9 10 37 13
61 2 25 8 54 12 65 5 16 5 17 -4 5 -7 -9 -11 -10 -11 -3 0 6 5 15 11 19 8 4 7
9 -2 15 -11 7 -11 9 -1 9 7 0 10 4 7 10 -3 6 -2 10 3 10 4 0 7 17 5 37 -1 20
3 43 10 52 10 12 9 13 -2 6 -10 -6 -12 -4 -5 6 4 8 9 25 11 39 7 78 11 109 17
119 4 6 1 11 -6 11 -9 0 -9 3 -2 8 6 4 11 14 12 22 0 8 2 31 3 50 1 19 6 40
11 47 6 7 5 14 -2 18 -7 4 -8 11 -1 18 5 7 11 37 13 67 2 30 6 60 9 65 3 6 5
29 5 52 -1 24 2 43 5 43 3 0 5 10 4 23 -1 12 3 25 9 29 7 5 6 8 -3 8 -9 0 -10
4 -4 13 5 6 9 21 9 32 -1 11 4 23 9 27 6 5 5 8 -3 8 -8 0 -10 5 -5 13 4 6 8
26 9 42 1 17 3 30 4 30 1 0 3 16 4 35 1 20 4 40 7 45 3 6 5 25 4 43 -1 17 2
32 5 32 4 0 6 20 6 45 -1 25 2 45 5 45 3 0 5 14 4 30 -1 17 1 33 5 35 4 3 6
20 4 40 -1 21 2 35 9 35 7 0 6 4 -3 10 -11 7 -11 10 -2 10 7 0 10 5 7 10 -3 6
-1 10 5 10 6 0 8 5 5 10 -4 6 -12 7 -18 3 -7 -4 -6 3 3 17 8 14 15 40 15 58
-1 17 2 32 5 32 4 0 6 16 5 35 -1 20 1 38 5 40 4 2 6 27 6 55 -1 27 1 50 4 50
5 0 9 22 10 55 0 8 0 22 0 30 1 39 5 55 15 55 5 0 3 5 -5 10 -9 6 -10 10 -3
10 8 0 11 14 10 40 -2 22 1 40 6 40 4 0 7 6 6 13 -4 36 2 68 13 61 7 -5 8 -3
3 7 -11 17 -16 59 -6 59 7 0 11 25 11 78 -1 19 4 32 12 32 10 0 10 2 0 9 -15
9 -15 17 -1 44 7 12 6 17 -3 17 -9 0 -10 3 -2 8 6 4 10 17 9 30 -1 16 2 21 13
17 11 -4 12 -2 5 7 -13 17 -9 94 5 111 9 10 8 17 0 25 -9 9 -9 12 2 12 13 0
13 2 0 10 -8 5 -10 10 -4 10 7 0 11 16 10 40 -1 27 3 41 13 45 10 4 11 9 4 16
-7 7 -8 22 -3 40 5 16 6 29 2 29 -4 0 0 5 8 10 8 5 10 10 3 10 -6 0 -10 8 -8
18 2 9 4 17 5 17 1 0 3 10 6 23 3 17 1 21 -8 16 -8 -5 -8 -1 1 10 8 9 16 41
17 69 3 70 3 69 13 62 6 -3 6 6 1 23 -4 16 -4 35 0 42 5 7 6 19 3 27 -3 7 0
13 7 13 9 0 10 3 1 13 -7 9 -7 17 -1 23 14 14 -27 97 -42 88 -6 -4 -8 -3 -4 4
3 6 -1 18 -10 26 -8 9 -12 16 -7 16 4 0 0 5 -10 11 -9 6 -15 14 -12 20 4 5 1
9 -4 9 -6 0 -11 6 -11 14 0 8 -7 16 -15 20 -8 3 -15 12 -15 19 0 8 -11 26 -25
41 -14 15 -23 31 -20 36 3 4 -2 11 -11 14 -8 3 -13 10 -10 14 3 5 -4 15 -15
22 -10 8 -19 20 -19 28 0 7 -7 15 -15 18 -8 4 -13 10 -10 14 2 4 -6 19 -19 33
-13 14 -21 28 -18 31 3 3 0 6 -6 6 -7 0 -12 7 -12 15 0 8 -4 15 -10 15 -5 0
-10 7 -10 15 0 8 -4 15 -10 15 -5 0 -10 7 -10 15 0 8 -4 15 -10 15 -5 0 -10 7
-10 15 0 8 -4 15 -10 15 -5 0 -10 7 -10 15 0 8 -4 15 -10 15 -5 0 -10 7 -10
15 0 8 -4 15 -10 15 -5 0 -10 7 -10 15 0 8 -4 15 -10 15 -5 0 -10 7 -10 15 0
8 -4 15 -10 15 -5 0 -10 7 -10 15 0 8 -4 15 -10 15 -5 0 -10 5 -10 10 0 6 -9
20 -20 32 -11 12 -20 28 -20 35 0 7 -5 13 -11 13 -5 0 -7 5 -4 10 3 6 1 10 -5
10 -6 0 -14 8 -17 18 -7 17 -15 28 -41 57 -7 8 -11 19 -8 24 3 5 -3 11 -14 14
-11 3 -20 12 -20 21 0 16 -6 26 -37 60 -7 8 -9 16 -6 20 4 3 1 6 -5 6 -7 0
-12 7 -12 15 0 8 -3 15 -8 15 -4 0 -15 12 -24 27 -14 24 -18 26 -23 11z"/>
<path d="M6260 6248 c0 -4 -7 -5 -16 -1 -9 3 -20 0 -25 -8 -7 -11 -9 -11 -9
-1 0 7 -5 10 -10 7 -6 -4 -7 -12 -3 -18 5 -9 3 -9 -8 0 -9 7 -20 8 -29 3 -8
-5 -17 -7 -21 -4 -4 2 -10 0 -14 -6 -3 -6 -14 -7 -23 -2 -24 11 -47 9 -66 -7
-13 -11 -16 -11 -16 0 0 8 -5 6 -13 -6 -8 -10 -19 -15 -25 -11 -6 3 -14 1 -17
-5 -4 -5 -13 -8 -21 -5 -8 3 -14 0 -14 -6 0 -6 -3 -8 -6 -5 -4 3 -16 1 -27 -5
-17 -9 -19 -8 -14 6 4 9 2 16 -3 16 -6 0 -10 -4 -10 -9 0 -4 -12 -7 -27 -7
-16 1 -34 -3 -42 -8 -16 -12 -39 -18 -69 -17 -13 1 -20 -4 -17 -9 3 -6 2 -10
-4 -10 -5 0 -12 6 -14 13 -4 9 -6 9 -6 -1 -1 -7 -6 -10 -11 -7 -6 3 -24 -17
-42 -44 -17 -28 -36 -51 -41 -51 -6 0 -8 -3 -4 -6 7 -7 -29 -44 -44 -44 -5 0
-7 -4 -4 -10 3 -5 0 -10 -8 -10 -8 0 -18 -7 -21 -16 -6 -15 -4 -15 11 -3 20
15 -21 -35 -51 -63 -10 -10 -16 -18 -13 -18 3 0 -5 -11 -19 -25 -15 -15 -22
-30 -18 -38 4 -6 4 -9 -1 -5 -7 7 -59 -57 -60 -74 0 -3 -4 -10 -9 -15 -5 -5
-6 -2 -2 7 4 8 -2 4 -13 -10 -12 -14 -25 -30 -31 -37 -5 -7 -10 -16 -10 -22 0
-5 -7 -11 -15 -15 -8 -3 -14 -11 -13 -18 2 -7 -3 -12 -9 -11 -7 2 -12 0 -12
-5 3 -19 -2 -33 -11 -27 -5 3 -10 2 -10 -4 0 -5 -6 -16 -12 -23 -19 -20 -38
-50 -44 -70 -4 -10 -14 -20 -23 -23 -9 -3 -35 -33 -56 -67 -22 -34 -48 -70
-59 -79 -10 -10 -24 -28 -31 -41 -6 -13 -17 -22 -23 -21 -6 2 -9 -4 -6 -12 4
-8 1 -15 -5 -15 -6 0 -11 -7 -11 -16 0 -9 -5 -12 -12 -8 -8 5 -9 2 -5 -10 4
-9 3 -15 -1 -12 -8 5 -40 -31 -42 -46 0 -4 -13 -20 -28 -36 -15 -16 -40 -45
-57 -64 -16 -20 -34 -33 -39 -30 -5 3 -6 0 -2 -6 4 -6 -2 -20 -14 -32 -11 -11
-17 -20 -13 -20 4 0 -2 -7 -13 -15 -10 -8 -16 -15 -12 -15 3 0 -9 -17 -27 -37
-57 -63 -70 -78 -73 -86 -1 -4 -5 -14 -8 -22 -4 -8 -13 -15 -21 -15 -8 0 -11
-4 -8 -10 3 -5 1 -10 -6 -10 -7 0 -10 -3 -6 -6 3 -3 -5 -17 -19 -31 -13 -13
-24 -31 -24 -39 0 -9 -5 -12 -12 -8 -8 5 -9 2 -5 -10 4 -10 3 -15 -3 -11 -6 3
-10 1 -10 -5 0 -6 -5 -8 -12 -4 -7 4 -8 3 -4 -5 4 -6 0 -14 -8 -17 -9 -3 -13
-10 -10 -15 3 -5 -2 -9 -10 -9 -10 0 -13 -6 -10 -15 4 -8 2 -15 -3 -15 -4 0
-19 -18 -33 -39 -13 -22 -26 -38 -29 -36 -4 1 -12 -3 -19 -11 -7 -8 -10 -14
-5 -14 4 0 -2 -7 -13 -16 -10 -8 -12 -13 -4 -9 8 4 4 -3 -10 -15 -14 -12 -18
-18 -10 -14 15 7 1 -10 -47 -60 -13 -13 -23 -29 -23 -35 0 -7 -4 -10 -9 -7 -5
3 -12 -5 -15 -19 -4 -14 -11 -25 -16 -25 -6 0 -15 -12 -20 -26 -6 -14 -15 -22
-20 -19 -6 4 -9 2 -8 -4 2 -5 -6 -17 -17 -26 -11 -9 -13 -14 -5 -10 8 4 6 -1
-4 -9 -11 -9 -17 -16 -13 -16 5 0 2 -6 -5 -14 -7 -8 -17 -11 -22 -8 -5 3 -6 0
-2 -6 3 -6 2 -13 -4 -17 -6 -4 -8 -11 -5 -16 4 -5 -1 -9 -9 -9 -9 0 -16 -7
-16 -16 0 -8 -4 -12 -10 -9 -6 3 -10 -4 -10 -17 0 -16 -3 -19 -9 -10 -6 11
-10 10 -15 -5 -4 -10 -7 -20 -6 -22 1 -2 -4 -7 -10 -11 -8 -5 -6 -9 5 -14 14
-5 16 -2 12 14 -4 17 -3 19 9 9 10 -8 14 -8 14 0 0 6 6 11 13 11 7 0 20 9 30
20 10 12 22 18 28 15 5 -4 8 -3 7 2 -3 11 57 73 71 73 6 0 11 7 11 16 0 13 3
14 14 5 11 -9 19 -4 42 24 15 20 34 33 41 31 7 -3 10 1 6 10 -4 10 0 12 13 8
11 -4 16 -4 12 1 -9 10 31 47 43 39 5 -3 9 0 9 6 0 6 5 8 10 5 9 -6 15 8 11
29 -1 5 6 3 16 -4 10 -8 15 -11 11 -6 -10 11 54 71 74 70 9 -1 16 4 15 10 -1
6 4 10 11 8 6 -1 12 6 12 15 0 15 2 16 10 3 8 -12 10 -10 10 10 0 20 2 22 10
10 8 -13 10 -13 10 2 0 19 33 41 45 30 5 -4 6 -2 2 3 -3 6 3 17 15 24 16 10
19 10 13 -1 -3 -7 1 -4 10 7 9 11 20 19 25 18 5 -2 12 6 15 17 4 11 13 20 20
20 8 0 21 10 30 23 8 12 19 21 23 19 4 -1 19 9 34 24 16 14 33 22 39 18 8 -4
9 -3 5 4 -4 7 -2 12 4 12 6 0 8 5 5 10 -6 9 8 14 20 8 2 -2 12 7 20 20 9 12
20 20 25 17 5 -3 17 6 26 20 9 14 22 25 30 25 7 0 20 10 28 22 9 12 16 19 16
15 0 -5 12 5 26 20 14 15 23 23 20 17 -3 -6 1 -11 9 -11 7 0 12 8 10 19 -2 10
0 16 5 13 5 -3 15 4 24 16 8 12 19 19 24 15 5 -3 14 6 20 19 10 23 23 30 45
26 4 0 7 4 7 10 0 5 4 7 10 4 6 -3 7 1 4 9 -4 12 0 16 16 16 11 0 19 3 17 8
-6 9 19 33 26 26 3 -3 10 4 17 15 6 12 19 21 28 21 10 0 25 8 33 18 26 28 63
57 72 54 4 -1 7 5 7 14 0 10 6 14 15 10 8 -3 14 0 12 7 -1 7 8 11 20 11 13 -1
20 2 18 6 -7 12 66 70 79 63 6 -4 5 1 -3 10 -12 15 -12 17 3 11 11 -4 16 -1
16 12 0 14 3 16 9 6 6 -10 10 -10 21 2 7 9 17 13 23 9 5 -3 7 -2 4 4 -3 5 4
16 15 24 12 8 32 24 45 36 13 13 26 23 28 23 3 0 10 0 16 0 5 0 7 5 3 12 -5 8
-2 9 10 5 9 -4 15 -3 13 1 -3 4 1 13 9 20 8 7 14 10 14 7 0 -3 18 13 40 35 22
22 40 36 40 31 0 -10 34 16 81 63 33 33 84 63 73 43 -3 -7 5 2 20 18 14 17 26
26 26 20 1 -5 5 0 11 13 5 13 13 21 18 18 5 -3 12 1 15 10 3 8 10 13 15 10 5
-3 12 6 15 19 4 14 10 24 14 21 4 -2 7 15 6 40 -1 24 3 44 8 44 6 0 4 8 -3 17
-10 11 -10 14 -1 9 8 -5 12 0 13 16 0 13 2 32 4 43 2 11 7 35 9 53 3 18 11 42
17 54 7 13 7 18 0 14 -5 -4 -4 6 4 20 8 15 12 31 9 36 -3 5 0 16 8 25 11 14
11 16 -1 8 -11 -6 -12 -5 -5 6 10 16 14 33 16 71 0 15 4 26 7 23 4 -2 6 15 6
38 0 23 6 48 13 55 7 8 10 17 7 22 -7 11 -45 9 -45 -2z"/>
<path d="M7900 6245 c-7 -8 -8 -15 -3 -15 6 0 9 -10 8 -22 -1 -13 5 -34 13
-47 11 -19 11 -22 1 -16 -11 6 -12 5 -1 -6 6 -7 12 -23 12 -35 0 -13 5 -26 12
-30 7 -5 5 -11 -7 -21 -11 -7 -14 -13 -8 -13 6 0 9 -10 9 -22 -1 -13 2 -29 7
-35 5 -7 6 -13 1 -13 -4 0 1 -7 12 -16 10 -8 12 -12 4 -8 -12 6 -13 4 -2 -7 6
-7 12 -26 12 -42 0 -15 4 -26 8 -23 4 2 9 -4 9 -15 1 -11 -2 -17 -6 -15 -4 3
-8 -1 -8 -9 0 -8 4 -15 8 -15 4 0 6 -8 4 -17 -1 -10 4 -29 12 -42 14 -22 14
-24 -2 -17 -16 6 -16 4 -4 -10 8 -10 14 -24 14 -33 0 -9 4 -22 8 -28 5 -7 5
-17 2 -23 -3 -5 -1 -10 5 -10 6 0 8 -4 5 -10 -3 -5 1 -10 9 -10 8 0 18 -9 21
-20 3 -11 14 -20 24 -20 22 0 44 -23 33 -35 -4 -5 -2 -5 4 -2 13 8 57 -27 47
-37 -3 -3 1 -6 10 -6 10 0 17 -4 17 -10 0 -5 7 -10 15 -10 7 0 18 -7 23 -16 5
-9 12 -15 15 -15 13 2 47 -24 47 -35 0 -11 35 -28 53 -25 7 1 11 -15 8 -31 0
-5 2 -7 7 -6 17 5 52 -14 52 -28 0 -8 5 -12 10 -9 6 3 14 -4 19 -17 6 -13 10
-17 10 -11 1 13 25 -3 62 -41 11 -11 19 -16 19 -12 0 4 19 -11 43 -33 23 -22
54 -46 70 -52 15 -6 27 -17 27 -25 0 -7 8 -11 20 -9 14 3 20 -2 20 -14 0 -10
12 -24 28 -32 15 -8 31 -20 35 -27 5 -7 12 -10 18 -7 5 4 9 1 9 -5 0 -6 5 -8
10 -5 6 3 10 -1 10 -9 0 -9 3 -15 8 -15 16 3 32 -1 31 -8 -4 -22 3 -32 16 -27
9 4 15 0 15 -10 0 -9 8 -16 19 -16 10 0 43 -23 71 -51 29 -29 49 -46 45 -38
-5 7 6 3 23 -10 18 -12 32 -27 32 -32 0 -5 6 -9 13 -9 8 0 19 -10 26 -22 6
-13 9 -15 7 -5 -8 27 3 20 15 -9 5 -15 12 -24 15 -21 3 2 17 -6 31 -19 14 -13
29 -21 34 -18 5 3 6 -2 3 -10 -4 -11 0 -16 12 -16 11 0 27 -14 36 -31 10 -17
23 -27 29 -24 6 4 19 -1 29 -11 33 -33 48 -43 54 -37 3 4 6 -1 6 -10 0 -9 4
-19 10 -22 6 -4 7 1 4 12 -3 10 3 6 12 -9 10 -16 23 -28 29 -28 6 0 21 -9 33
-20 12 -11 26 -20 32 -20 6 0 8 -4 5 -10 -3 -5 3 -10 14 -10 12 0 21 -7 21
-16 0 -8 4 -13 9 -10 5 3 12 -1 15 -9 3 -9 17 -20 31 -25 14 -5 25 -14 25 -21
0 -6 6 -9 12 -7 13 5 55 -41 51 -54 -2 -4 6 -5 17 -3 13 3 18 0 14 -7 -5 -7
-1 -9 9 -5 9 3 16 3 16 -1 -4 -22 3 -30 21 -25 14 4 20 0 20 -10 0 -9 9 -19
20 -22 11 -3 20 -13 20 -22 0 -10 6 -13 16 -9 10 4 13 2 8 -6 -5 -8 -1 -9 12
-4 10 4 15 4 11 0 -7 -8 46 -50 75 -60 10 -3 18 -12 18 -20 0 -8 8 -18 18 -21
20 -8 36 -21 60 -45 9 -10 25 -18 35 -18 13 0 17 -5 13 -16 -3 -8 -2 -12 4 -9
6 3 10 1 10 -4 0 -6 5 -11 11 -11 12 0 40 -26 34 -32 -2 -2 10 -5 28 -6 23 -1
28 1 17 7 -8 5 -19 7 -25 3 -5 -3 -3 3 5 13 9 11 10 16 3 11 -8 -4 -13 -1 -13
8 0 9 -7 16 -15 16 -13 0 -19 12 -12 25 1 2 -8 12 -21 20 -12 9 -19 21 -16 27
4 6 3 8 -3 5 -5 -3 -18 6 -29 20 -10 15 -28 35 -39 46 -11 11 -13 16 -5 12 17
-10 -11 27 -50 64 -14 13 -18 20 -10 16 9 -4 9 -1 -2 8 -10 8 -18 20 -18 26 0
7 -4 9 -10 6 -5 -3 -10 1 -10 9 0 9 -5 16 -11 16 -5 0 -7 5 -4 10 3 6 -2 10
-12 11 -11 0 -13 3 -5 6 8 3 0 17 -25 39 -20 19 -33 34 -28 34 5 0 -1 7 -13
16 -12 8 -22 22 -22 30 0 9 -5 12 -12 8 -7 -4 -8 -3 -4 5 4 6 -8 25 -28 45
-20 18 -36 38 -36 45 0 6 -4 11 -10 11 -5 0 -10 7 -10 15 0 8 -16 31 -35 51
-19 20 -33 40 -29 45 3 5 -2 9 -11 9 -8 0 -19 8 -22 18 -4 9 -13 23 -20 30 -7
8 -11 18 -8 23 4 5 -1 9 -9 9 -8 0 -18 5 -22 12 -5 7 -3 8 6 3 9 -6 11 -4 6 4
-5 7 -15 10 -23 7 -11 -4 -13 -2 -9 9 3 9 -4 24 -19 37 -14 12 -23 28 -21 35
3 7 -1 13 -9 13 -8 0 -15 7 -15 16 0 8 -4 12 -10 9 -5 -3 -10 3 -10 15 0 12
-4 18 -10 15 -5 -3 -10 1 -10 10 0 9 -4 13 -10 10 -5 -3 -10 1 -10 10 0 9 -4
13 -10 10 -5 -3 -10 0 -10 8 0 12 -11 28 -52 77 -7 8 -12 18 -10 23 1 5 -2 6
-8 2 -6 -3 -14 4 -19 17 -6 14 -10 17 -11 8 -1 -14 -20 22 -19 36 0 3 -10 14
-22 25 -12 10 -19 19 -15 19 4 0 1 7 -8 15 -8 8 -20 15 -26 15 -6 0 -8 5 -5
10 3 6 -2 10 -11 10 -10 0 -14 3 -11 7 4 3 -1 15 -10 26 -13 15 -14 19 -3 13
9 -4 8 -2 -2 7 -10 8 -18 19 -18 25 0 6 -12 18 -27 26 -16 8 -27 17 -25 20 1
3 2 12 2 19 0 8 -4 7 -10 -3 -8 -12 -10 -11 -10 8 0 12 -4 22 -10 22 -5 0 -7
7 -4 15 4 10 0 15 -11 15 -9 0 -14 4 -11 8 3 5 -6 16 -20 26 -13 11 -24 25
-24 32 0 7 -9 19 -19 26 -11 8 -21 20 -23 28 -2 8 -11 22 -20 31 -10 9 -15 19
-11 23 3 3 -1 6 -10 6 -9 0 -17 7 -17 16 0 9 -5 12 -12 8 -8 -5 -9 -2 -5 10 4
10 3 15 -3 11 -6 -3 -10 -1 -10 5 0 6 -4 8 -10 5 -5 -3 -7 0 -5 7 3 8 -3 23
-14 35 -11 11 -17 24 -14 27 4 3 -1 6 -10 6 -9 0 -17 7 -17 15 0 8 -5 15 -11
15 -5 0 -7 5 -3 12 4 6 3 8 -3 5 -13 -8 -46 40 -38 53 3 6 0 10 -8 10 -8 0
-21 8 -28 18 -13 16 -13 16 6 2 19 -15 19 -15 0 12 -11 15 -26 28 -33 28 -7 0
-17 12 -22 26 -6 14 -14 22 -20 19 -5 -3 -7 0 -5 7 3 8 -4 23 -15 35 -11 12
-20 27 -20 33 0 5 -6 9 -12 8 -7 -2 -12 5 -12 15 1 10 -5 17 -17 17 -10 0 -19
6 -19 13 -1 17 -47 49 -55 37 -4 -7 -13 -6 -27 1 -16 9 -23 8 -29 -2 -5 -9 -9
-10 -9 -3 0 7 -7 15 -16 18 -8 3 -12 2 -9 -4 3 -6 -1 -7 -9 -4 -9 3 -16 11
-16 17 0 7 -4 7 -12 -1 -9 -9 -16 -8 -32 6 -14 12 -17 13 -11 2 8 -13 7 -13
-8 -1 -14 11 -17 11 -17 0 0 -12 -2 -12 -9 0 -5 8 -16 11 -25 8 -9 -4 -16 -2
-16 4 0 6 -4 8 -9 4 -5 -3 -17 2 -25 11 -9 8 -16 12 -16 7 0 -11 -47 -9 -57 2
-5 4 -2 5 6 0 8 -5 12 -4 9 1 -4 5 -25 9 -47 8 -23 0 -41 3 -41 8 0 5 -5 6
-10 3 -6 -4 -18 -1 -27 7 -14 11 -16 11 -8 -2 6 -12 5 -12 -5 -3 -7 6 -19 9
-26 6 -8 -3 -22 1 -31 8 -14 12 -16 12 -8 -1 7 -13 6 -13 -7 -2 -12 10 -18 9
-28 -3z"/>
<path d="M4970 4689 c0 -5 5 -7 10 -4 6 3 10 8 10 11 0 2 -4 4 -10 4 -5 0 -10
-5 -10 -11z"/>
<path d="M3976 3947 c3 -10 9 -15 12 -12 3 3 0 11 -7 18 -10 9 -11 8 -5 -6z"/>
<path d="M10190 3946 c0 -2 7 -7 16 -10 8 -3 12 -2 9 4 -6 10 -25 14 -25 6z"/>
</g>
</svg>
